<svg width="190" height="35" viewBox="0 0 190 35" fill="none" xmlns="http://www.w3.org/2000/svg">
<path d="M0 10C0 4.47715 4.47715 0 10 0H189.594V24.5415C189.594 30.0643 185.117 34.5415 179.594 34.5415H0V10Z" fill="black"/>
<rect x="36.2537" width="1" height="34.5415" fill="#3A3A3A"/>
<g clip-path="url(#clip0)">
<path d="M15.2817 25.8837C15.2817 25.8478 15.2808 25.8119 15.2817 25.776C15.2869 25.57 15.2869 25.57 15.4933 25.5096C15.6367 25.4675 15.7801 25.4237 15.9243 25.3852C16.11 25.3352 16.2551 25.429 16.2836 25.6165C16.2879 25.6428 16.2836 25.6708 16.2888 25.6971C16.389 26.1992 16.3743 26.1081 15.9381 26.3131C15.9217 26.321 15.9044 26.3254 15.8889 26.3324C15.6134 26.4542 15.4691 26.42 15.3214 26.1685C15.2756 26.0914 15.2843 25.9819 15.2679 25.8864C15.2722 25.8846 15.2765 25.8846 15.2817 25.8837V25.8837Z" fill="white"/>
<path d="M10.4785 15.444C10.3454 15.1943 10.2288 14.9752 10.1148 14.7605C10.2703 14.3724 10.5631 14.2926 10.9527 14.3671C11.033 14.5765 11.1228 14.7973 11.2005 15.0217C11.242 15.1417 11.1375 15.3266 11.0097 15.3546C10.8404 15.3923 10.6668 15.4134 10.4785 15.444V15.444Z" fill="white"/>
<path d="M12.7 23.878C12.9332 23.8999 13.169 23.9157 13.4039 23.9455C13.5335 23.9621 13.6345 24.1488 13.6052 24.3003C13.5905 24.3792 13.5654 24.4554 13.5421 24.5326C13.5188 24.6079 13.4929 24.6824 13.4661 24.7613C13.2493 24.7849 13.0403 24.8068 12.8304 24.8305C12.7216 24.8427 12.668 24.7893 12.6007 24.699C12.3839 24.4072 12.5316 24.168 12.7 23.878V23.878Z" fill="white"/>
<path d="M12.3148 23.184C12.0971 23.1498 11.9071 23.1086 11.7153 23.0929C11.5806 23.0815 11.5253 23.0359 11.4839 22.8957C11.4243 22.6933 11.4389 22.5321 11.578 22.377C11.6367 22.3112 11.6851 22.235 11.7542 22.1413C11.9727 22.2122 12.2008 22.2771 12.4219 22.3603C12.5635 22.4129 12.6128 22.5645 12.5462 22.7178C12.4797 22.872 12.3977 23.0201 12.3148 23.184V23.184Z" fill="white"/>
<path d="M11.1012 19.9865C11.0528 20.0654 11.0157 20.1548 10.9535 20.2205C10.6564 20.5386 10.6538 20.536 10.2763 20.33C10.2453 20.3134 10.2142 20.2967 10.1848 20.2775C10.0786 20.21 9.93085 20.1898 9.94381 20.0032C9.95677 19.813 9.94813 19.622 10.1572 19.5248C10.1969 19.5063 10.2375 19.4836 10.2686 19.4529C10.3904 19.3329 10.5001 19.3661 10.6167 19.4652C10.7246 19.5572 10.836 19.6457 10.9544 19.7228C11.0468 19.7832 11.0883 19.8577 11.1012 19.9865V19.9865Z" fill="white"/>
<path d="M13.8773 24.2811C14.1079 24.2636 14.3178 24.2425 14.5285 24.2329C14.6805 24.2259 14.8058 24.3231 14.8032 24.4546C14.7989 24.6491 14.773 24.8428 14.7557 25.0496C14.5328 25.096 14.329 25.1468 14.1217 25.1801C13.9464 25.2082 13.708 24.9427 13.7451 24.7656C13.7779 24.6106 13.828 24.459 13.8773 24.2811Z" fill="white"/>
<path d="M24.1376 24.9584C24.065 25.2414 24.0037 25.4807 23.9501 25.691C23.5407 25.9249 23.304 25.6997 23.0743 25.4132C23.1555 25.2046 23.2315 24.997 23.3179 24.7928C23.3749 24.6587 23.5459 24.5904 23.6668 24.6579C23.8257 24.7481 23.976 24.8541 24.1376 24.9584Z" fill="white"/>
<path d="M10.589 17.3963C10.7341 17.5725 10.881 17.7389 11.014 17.9151C11.1202 18.0553 11.09 18.1981 10.9388 18.3006C10.7998 18.3944 10.6547 18.4776 10.4949 18.5766C10.3057 18.3988 10.12 18.2235 9.94468 18.057C9.91185 17.597 10.2478 17.5164 10.589 17.3963Z" fill="white"/>
<path d="M18.2953 26.1887C18.4663 26.0643 18.6416 25.9302 18.8239 25.8058C18.9534 25.7173 19.0977 25.7532 19.1789 25.8978C19.2652 26.0529 19.3369 26.2158 19.4198 26.385C19.2264 26.5725 19.0424 26.7504 18.8653 26.9221C18.4015 26.7933 18.3592 26.7381 18.2953 26.1887Z" fill="white"/>
<path d="M22.347 25.5701C22.2477 25.7646 22.1579 25.9468 22.062 26.1265C21.9748 26.2903 21.6474 26.3429 21.5213 26.2036C21.4038 26.0739 21.3088 25.9232 21.2 25.7768C21.3356 25.5893 21.4574 25.4158 21.5852 25.2467C21.6984 25.096 21.8176 25.0846 21.9592 25.2082C22.0853 25.3194 22.2054 25.4377 22.347 25.5701V25.5701Z" fill="white"/>
<path d="M11.553 21.4403C11.3128 21.3369 11.0883 21.2405 10.8697 21.1467C10.7609 20.7051 10.7963 20.6315 11.2688 20.3134C11.4553 20.4255 11.654 20.5377 11.844 20.6621C11.9563 20.7357 11.9788 20.8654 11.8959 20.989C11.7939 21.1423 11.6739 21.2825 11.553 21.4403Z" fill="white"/>
<path d="M10.7877 16.7172C10.6365 16.4938 10.488 16.2747 10.3429 16.0592C10.5597 15.6745 10.3653 15.7279 11.1409 15.5956C11.2411 15.805 11.3482 16.0188 11.445 16.237C11.5003 16.3623 11.4614 16.4517 11.3266 16.5095C11.1582 16.5823 10.9837 16.6427 10.7877 16.7172V16.7172Z" fill="white"/>
<path d="M15.7421 9.82722C15.6332 10.0515 15.5417 10.254 15.438 10.4502C15.3586 10.6001 15.2618 10.6211 15.1141 10.5387C14.6313 10.2715 14.6313 10.2715 14.8118 9.72294C14.8982 9.45919 14.9785 9.40223 15.2273 9.43378C15.2687 9.43904 15.3162 9.45043 15.3465 9.47671C15.4752 9.58537 15.5978 9.69841 15.7421 9.82722Z" fill="white"/>
<path d="M17.6172 25.9363C17.3823 26.0713 17.162 26.1983 16.9539 26.3192C16.5065 26.1974 16.5566 25.8443 16.5566 25.4798C16.7699 25.3974 16.9936 25.3028 17.2234 25.2257C17.3408 25.1862 17.4229 25.2485 17.4566 25.3711C17.5058 25.549 17.5576 25.7278 17.6172 25.9363V25.9363Z" fill="white"/>
<path d="M27.3187 19.8095C27.4102 20.0093 27.4992 20.1933 27.5804 20.3809C27.659 20.5631 27.5078 20.8383 27.3118 20.8602C27.1719 20.8759 27.0285 20.8777 26.8885 20.8672C26.8428 20.8637 26.778 20.8085 26.7624 20.7629C26.6985 20.578 26.645 20.3887 26.5983 20.1986C26.5621 20.0496 26.6165 19.955 26.7668 19.9182C26.943 19.8726 27.1252 19.8463 27.3187 19.8095Z" fill="white"/>
<path d="M15.2653 25.3335C15.007 25.1819 14.9621 24.9768 15.0355 24.7236C15.0606 24.6395 15.0623 24.5483 15.0787 24.4274C15.3162 24.3959 15.5572 24.3573 15.7991 24.3398C15.8457 24.3363 15.9312 24.4108 15.9416 24.4616C15.9761 24.636 15.9865 24.8165 16.0055 24.9943C16.0176 25.1091 15.9416 25.1529 15.8509 25.1775C15.6566 25.2309 15.4613 25.2818 15.2653 25.3335V25.3335Z" fill="white"/>
<path d="M27.4111 16.8294C27.5994 17.0309 27.7696 17.2123 27.9363 17.3911C27.9466 17.859 27.5597 17.8607 27.247 18.0001C27.114 17.8064 26.9732 17.6154 26.848 17.413C26.765 17.2798 26.7875 17.2097 26.9196 17.1256C27.076 17.0248 27.2366 16.9337 27.4111 16.8294V16.8294Z" fill="white"/>
<path d="M12.808 22.7406C13.0636 22.7914 13.3115 22.8309 13.5542 22.894C13.6397 22.9167 13.6907 23.014 13.663 23.113C13.6078 23.3084 13.5413 23.5003 13.4713 23.7203C13.2079 23.6949 12.9565 23.6703 12.7242 23.6475C12.4132 23.3207 12.6853 23.064 12.808 22.7406Z" fill="white"/>
<path d="M12.0997 12.8249C12.1247 13.0685 12.1524 13.2727 12.1653 13.4768C12.1783 13.6801 12.1101 13.7581 11.9157 13.766C11.7577 13.7721 11.5987 13.7669 11.4251 13.7669C11.2999 13.5364 11.2662 13.2805 11.2144 13.0334C11.1936 12.9362 11.4553 12.7092 11.5694 12.7232C11.7421 12.7452 11.9114 12.7881 12.0997 12.8249Z" fill="white"/>
<path d="M26.2597 23.4197C25.9609 23.7571 25.6698 23.5976 25.3753 23.4495C25.3753 23.2261 25.3658 23.0114 25.3779 22.7985C25.3891 22.6022 25.5066 22.5137 25.6975 22.54C25.8106 22.5557 25.922 22.5811 26.0343 22.603C26.1535 22.6258 26.2166 22.6959 26.2226 22.8221C26.2321 23.0184 26.2468 23.2147 26.2597 23.4197V23.4197Z" fill="white"/>
<path d="M22.132 9.40399C22.3427 9.326 22.5388 9.24889 22.7374 9.18229C22.9111 9.12446 23.1684 9.33914 23.1641 9.53017C23.1641 9.53893 23.1607 9.54769 23.1598 9.55645C23.1451 9.70629 23.1296 9.85701 23.1132 10.0279C22.8921 10.0734 22.6718 10.1251 22.449 10.1619C22.2736 10.1909 22.2062 10.133 22.1855 9.96216C22.1682 9.82021 22.1501 9.67913 22.1337 9.53718C22.1285 9.503 22.132 9.46795 22.132 9.40399V9.40399Z" fill="white"/>
<path d="M24.7517 23.8149C24.7206 24.0462 24.7024 24.2679 24.6575 24.4826C24.6212 24.6587 24.3518 24.763 24.1868 24.6736C24.0408 24.5939 23.9018 24.4984 23.7446 24.4011C23.8111 24.1768 23.8707 23.9551 23.9441 23.7387C24.0028 23.566 24.0728 23.5398 24.249 23.6072C24.4053 23.6668 24.5591 23.7343 24.7517 23.8149Z" fill="white"/>
<path d="M19.7956 8.55577C20.0651 8.61098 20.2076 8.73803 20.2352 8.98777C20.2473 9.09204 20.2913 9.19193 20.3259 9.31198C20.1246 9.4329 19.932 9.55646 19.7325 9.66774C19.596 9.74398 19.5244 9.72295 19.4509 9.5845C19.3602 9.41187 19.2825 9.23224 19.1935 9.04472C19.4052 8.87385 19.603 8.71262 19.7956 8.55577Z" fill="white"/>
<path d="M26.3738 21.3579C26.4204 21.5953 26.4575 21.7872 26.4956 21.9783C26.5413 22.2096 26.3738 22.391 26.1345 22.3594C25.9782 22.3384 25.8236 22.3051 25.6292 22.2709C25.6145 22.03 25.5929 21.7837 25.5869 21.5384C25.5834 21.4034 25.6802 21.3579 25.8011 21.3588C25.9859 21.3579 26.1699 21.3579 26.3738 21.3579Z" fill="white"/>
<path d="M20.5332 25.769C20.3535 25.9731 20.1851 26.1659 20.0219 26.3517C19.5572 26.385 19.5416 25.9828 19.368 25.7006C19.5554 25.5438 19.7368 25.3913 19.9182 25.2388C20.0227 25.1512 20.1117 25.1749 20.1868 25.2809C20.2957 25.4325 20.4028 25.5849 20.5332 25.769Z" fill="white"/>
<path d="M13.505 11.6244C13.4713 11.8785 13.4471 12.1265 13.3979 12.3684C13.3875 12.4218 13.2821 12.4981 13.2286 12.4919C13.0299 12.4683 12.8356 12.4148 12.6214 12.3684C12.611 12.1248 12.5955 11.8943 12.5946 11.6647C12.5938 11.5254 12.8434 11.3729 12.9954 11.4229C13.1604 11.4772 13.3201 11.5508 13.505 11.6244V11.6244Z" fill="white"/>
<path d="M22.0352 24.94C22.1639 24.7192 22.2788 24.5203 22.3945 24.3223C22.4541 24.2206 22.5293 24.1891 22.6347 24.26C22.8014 24.3722 22.9706 24.4817 23.152 24.6009C23.0596 24.834 22.9801 25.0504 22.8877 25.2599C22.8385 25.372 22.5733 25.4185 22.4714 25.3343C22.3289 25.216 22.1959 25.0864 22.0352 24.94Z" fill="white"/>
<path d="M17.5326 9.59502C17.3728 9.78954 17.2311 9.96918 17.0809 10.1418C16.9971 10.2382 16.9081 10.2408 16.807 10.1462C16.6654 10.0139 16.5341 9.86928 16.3873 9.71857C16.4944 9.54332 16.598 9.36894 16.7069 9.1972C16.8191 9.02107 17.048 8.98777 17.1905 9.14199C17.3149 9.27781 17.4134 9.43554 17.5326 9.59502V9.59502Z" fill="white"/>
<path d="M10.602 19.1777C10.5605 18.8991 10.6607 18.7282 10.8922 18.624C10.9872 18.581 11.0727 18.5171 11.198 18.4399C11.3543 18.6108 11.5106 18.7799 11.667 18.9499C11.7568 19.0481 11.7482 19.1453 11.6549 19.2321C11.5115 19.3653 11.3647 19.4932 11.2083 19.6325C10.9958 19.473 10.792 19.3206 10.602 19.1777V19.1777Z" fill="white"/>
<path d="M15.0804 10.8139C14.969 11.0925 14.8671 11.3449 14.7539 11.6288C14.5052 11.5237 14.2884 11.4325 14.0379 11.3274C14.0889 11.0803 14.1295 10.8375 14.1908 10.601C14.2184 10.4932 14.4698 10.431 14.5829 10.4976C14.7436 10.5904 14.8965 10.6956 15.0804 10.8139V10.8139Z" fill="white"/>
<path d="M18.1562 26.0064C17.9049 25.9521 17.8038 25.8066 17.7753 25.5876C17.7606 25.4745 17.7148 25.365 17.6734 25.2222C17.9204 25.0986 18.1692 24.9751 18.4525 24.834C18.5682 25.082 18.6753 25.3107 18.7893 25.5551C18.5699 25.712 18.3626 25.8601 18.1562 26.0064V26.0064Z" fill="white"/>
<path d="M11.5003 16.7093C11.6462 16.9582 11.7801 17.1878 11.9269 17.4393C11.7283 17.618 11.4994 17.7249 11.2601 17.8581C11.109 17.6767 10.9552 17.505 10.8179 17.321C10.7298 17.2035 10.8058 16.9862 10.9552 16.9196C11.1237 16.8443 11.299 16.7864 11.5003 16.7093V16.7093Z" fill="white"/>
<path d="M21.9264 10.0831C21.669 10.1637 21.4177 10.2417 21.1516 10.3249C20.9685 10.1094 20.9944 9.83335 20.8908 9.5696C21.1257 9.45481 21.3537 9.3444 21.5792 9.23399C21.8141 9.31549 21.9385 9.45481 21.9074 9.71681C21.8953 9.83072 21.9186 9.94814 21.9264 10.0831V10.0831Z" fill="white"/>
<path d="M13.9179 23.1183C14.2037 23.1533 14.4646 23.1858 14.7565 23.2217C14.7254 23.4907 14.6969 23.7352 14.6658 24.0051C14.4387 24.0217 14.2297 24.0436 14.0206 24.0489C13.8444 24.0533 13.6976 23.8614 13.7425 23.6826C13.7874 23.5021 13.8522 23.3268 13.9179 23.1183V23.1183Z" fill="white"/>
<path d="M26.4956 14.0613C26.7348 14.1848 26.9533 14.2979 27.1658 14.4074C27.2418 14.6554 27.2004 14.849 26.9758 14.9901C26.8877 15.0453 26.8195 15.1321 26.727 15.218C26.531 15.0751 26.3409 14.9349 26.1492 14.7965C26.0464 14.722 26.0499 14.6405 26.1224 14.5467C26.2425 14.3943 26.3599 14.2383 26.4956 14.0613Z" fill="white"/>
<path d="M25.3269 12.8573C25.0445 12.7697 24.794 12.6926 24.5081 12.6041C24.5824 12.3526 24.6506 12.1195 24.7292 11.8549C24.9728 11.882 25.2069 11.8961 25.4366 11.9372C25.5722 11.9609 25.6586 12.1922 25.5938 12.3324C25.5161 12.5007 25.4263 12.6645 25.3269 12.8573Z" fill="white"/>
<path d="M12.8935 21.4341C12.884 21.5068 12.8883 21.5568 12.8701 21.5936C12.7795 21.7767 12.6819 21.9555 12.5765 22.1579C12.3407 22.0861 12.1126 22.0265 11.8907 21.9467C11.7697 21.9029 11.7214 21.6435 11.8086 21.52C11.9157 21.3675 12.0366 21.2256 12.1602 21.0678C12.4055 21.1905 12.6413 21.3079 12.8935 21.4341V21.4341Z" fill="white"/>
<path d="M27.0552 18.5828C27.1909 18.8229 27.317 19.0454 27.4387 19.2601C27.3774 19.4836 27.2582 19.6054 27.0285 19.608C26.9006 19.6098 26.7737 19.6483 26.6312 19.6728C26.5387 19.438 26.4489 19.2172 26.3669 18.9929C26.3366 18.9087 26.3574 18.8369 26.4558 18.8027C26.6527 18.7335 26.8488 18.659 27.0552 18.5828V18.5828Z" fill="white"/>
<path d="M27.3394 16.3168C27.3187 16.7602 26.943 16.7672 26.7158 16.9836C26.5249 16.761 26.3487 16.556 26.1483 16.3229C26.3522 16.1415 26.5405 15.9733 26.7417 15.7937C26.9507 15.9768 27.1494 16.1503 27.3394 16.3168V16.3168Z" fill="white"/>
<path d="M11.1703 14.2882C11.2956 14.0657 11.464 13.9737 11.7024 14.0087C11.8043 14.0236 11.9114 14.0114 12.0358 14.0114C12.0954 14.2935 12.1524 14.5599 12.2068 14.8175C12.0263 14.9489 11.7102 15.0155 11.4251 14.9866C11.3413 14.7553 11.2541 14.517 11.1703 14.2882V14.2882Z" fill="white"/>
<path d="M16.1998 24.3959C16.4564 24.338 16.7172 24.2784 17.0074 24.2127C17.0722 24.4747 17.1327 24.7201 17.1992 24.9873C16.9677 25.0776 16.7595 25.1696 16.5453 25.2397C16.4011 25.287 16.2439 25.1635 16.2318 25.0075C16.2171 24.813 16.2111 24.6176 16.1998 24.3959V24.3959Z" fill="white"/>
<path d="M16.2387 11.0899C16.0193 10.9427 15.8155 10.8069 15.5857 10.6526C15.6954 10.4301 15.7947 10.2136 15.9079 10.0051C15.9675 9.89556 16.18 9.87366 16.281 9.96917C16.4287 10.1085 16.5626 10.2618 16.7112 10.4178C16.5583 10.6351 16.4071 10.8507 16.2387 11.0899Z" fill="white"/>
<path d="M19.7774 9.9017C19.9726 9.78341 20.1575 9.66511 20.3492 9.55821C20.4771 9.48723 20.636 9.55558 20.6818 9.70279C20.7414 9.89732 20.7871 10.0962 20.8467 10.3249C20.6014 10.4266 20.3613 10.5265 20.1264 10.6246C19.9925 10.4792 19.8724 10.2329 19.7774 9.9017V9.9017Z" fill="white"/>
<path d="M13.1241 21.6295C13.3953 21.7373 13.638 21.8328 13.8911 21.9336C13.8064 22.1921 13.727 22.4339 13.6441 22.688C13.4195 22.6381 13.213 22.5987 13.0101 22.5443C12.8054 22.49 12.7458 22.3533 12.8382 22.1684C12.9254 21.9932 13.0204 21.8232 13.1241 21.6295V21.6295Z" fill="white"/>
<path d="M21.4462 25.0461C21.3235 25.2204 21.1819 25.4228 21.0471 25.6139C20.8208 25.6761 20.6783 25.5937 20.5721 25.4088C20.5064 25.2932 20.4209 25.1898 20.3328 25.0645C20.5401 24.8769 20.7422 24.6938 20.9305 24.5238C21.0756 24.6693 21.2527 24.8489 21.4462 25.0461V25.0461Z" fill="white"/>
<path d="M23.2712 11.1583C23.0277 11.1731 22.7988 11.1828 22.5707 11.2029C22.4515 11.2135 22.4084 11.1574 22.4084 11.0496C22.4075 10.8446 22.4084 10.6386 22.4084 10.4187C22.6079 10.374 22.8022 10.3232 23 10.2881C23.2229 10.2496 23.3723 10.4003 23.3472 10.6325C23.3282 10.7999 23.2989 10.9664 23.2712 11.1583Z" fill="white"/>
<path d="M24.4355 11.259C24.1764 11.2468 23.9346 11.231 23.6919 11.2257C23.5649 11.2231 23.5252 11.1626 23.5355 11.0549C23.5554 10.8498 23.577 10.6456 23.5986 10.4266C23.8137 10.4038 24.0244 10.3749 24.236 10.3617C24.4753 10.3477 24.6178 10.5142 24.5677 10.7429C24.5323 10.9085 24.4839 11.0715 24.4355 11.259Z" fill="white"/>
<path d="M25.8702 14.4758C25.6232 14.3285 25.3977 14.1945 25.1524 14.049C25.2777 13.8151 25.3934 13.5977 25.5273 13.3489C25.7596 13.4418 25.9885 13.525 26.2088 13.6258C26.3055 13.6705 26.3375 13.8492 26.2632 13.9623C26.1466 14.1366 26.0084 14.297 25.8702 14.4758V14.4758Z" fill="white"/>
<path d="M12.047 20.5237C11.8432 20.3993 11.6601 20.2932 11.483 20.1776C11.337 20.0821 11.3189 19.8639 11.4484 19.7412C11.5832 19.6133 11.73 19.4967 11.8924 19.3574C12.0988 19.5326 12.3061 19.7079 12.5333 19.8998C12.3709 20.1083 12.2198 20.302 12.047 20.5237V20.5237Z" fill="white"/>
<path d="M19.2644 9.77727C19.0329 9.94551 18.8195 10.1006 18.5967 10.2618C18.3868 10.105 18.3065 9.85614 18.1381 9.68614C18.1942 9.57048 18.5708 9.14549 18.6451 9.10869C18.7582 9.05173 18.9534 9.12709 19.0225 9.26379C19.1037 9.42151 19.1745 9.5845 19.2644 9.77727V9.77727Z" fill="white"/>
<path d="M26.2943 18.6003C26.1691 18.3453 26.0594 18.121 25.9393 17.8765C26.1406 17.7092 26.3764 17.6154 26.6035 17.4664C26.7547 17.6794 26.8972 17.8704 27.0285 18.0684C27.0898 18.1613 27.0285 18.333 26.9127 18.3795C26.7184 18.4601 26.5171 18.5223 26.2943 18.6003V18.6003Z" fill="white"/>
<path d="M22.6813 24.0059C22.8117 23.7352 22.9275 23.4968 23.0493 23.2436C23.2946 23.3549 23.5165 23.4548 23.7541 23.5626C23.6858 23.807 23.6297 24.0287 23.5606 24.2469C23.5243 24.3599 23.3619 24.4318 23.2505 24.3705C23.0544 24.2618 22.8705 24.1286 22.6813 24.0059V24.0059Z" fill="white"/>
<path d="M11.6816 16.216C11.5607 15.9636 11.451 15.7332 11.3448 15.5106C11.3983 15.3231 11.5115 15.2451 11.6937 15.2346C11.8492 15.2267 12.0021 15.1855 12.1792 15.1557C12.2595 15.4186 12.3355 15.6701 12.4219 15.9522C12.174 16.0408 11.939 16.1249 11.6816 16.216V16.216Z" fill="white"/>
<path d="M24.4096 22.4742C24.6757 22.5347 24.9132 22.5881 25.1654 22.6451C25.1473 22.9194 25.1308 23.1752 25.1144 23.4232C24.9538 23.5818 24.7914 23.5897 24.6074 23.4854C24.5012 23.425 24.382 23.389 24.249 23.3347C24.2498 23.0412 24.3397 22.7695 24.4096 22.4742V22.4742Z" fill="white"/>
<path d="M18.3497 10.3889C18.1415 10.5677 17.948 10.7341 17.7304 10.9208C17.5628 10.7228 17.4039 10.5335 17.2234 10.3205C17.3391 10.1821 17.4868 9.99633 17.6457 9.82108C17.733 9.72469 17.8919 9.7317 17.9679 9.83335C18.0992 10.0104 18.2184 10.1961 18.3497 10.3889Z" fill="white"/>
<path d="M12.0159 17.6995C12.1852 17.9335 12.3338 18.1403 12.4918 18.3593C12.2923 18.5311 12.1066 18.6914 11.8915 18.8763C11.7119 18.6932 11.5357 18.5241 11.3724 18.3427C11.2938 18.2551 11.337 18.1035 11.4614 18.0228C11.6315 17.9133 11.8103 17.8187 12.0159 17.6995Z" fill="white"/>
<path d="M18.696 24.7849C18.9353 24.6377 19.1521 24.5045 19.3896 24.3591C19.5408 24.5738 19.6824 24.7753 19.8422 25.0014C19.6522 25.1652 19.4725 25.3326 19.2799 25.4842C19.1797 25.563 19.0268 25.4991 18.9551 25.3545C18.867 25.1792 18.7919 24.9979 18.696 24.7849V24.7849Z" fill="white"/>
<path d="M14.9889 23.3189C15.2627 23.3189 15.5071 23.3189 15.7844 23.3189C15.806 23.5792 15.8258 23.8237 15.8483 24.0979C15.5814 24.1391 15.3413 24.1803 15.1003 24.2101C15.0139 24.2206 14.8973 24.1006 14.9051 23.9937C14.9215 23.7658 14.9595 23.5389 14.9889 23.3189V23.3189Z" fill="white"/>
<path d="M24.2913 12.4805C24.0132 12.4209 23.7687 12.3684 23.5027 12.3114C23.5312 12.0503 23.5571 11.8137 23.5865 11.5447C23.8465 11.5149 24.1065 11.5394 24.3604 11.5903C24.4675 11.6122 24.528 11.7208 24.4934 11.8417C24.4347 12.045 24.3664 12.2457 24.2913 12.4805V12.4805Z" fill="white"/>
<path d="M13.1975 12.7452C13.1975 13.0387 13.1975 13.3016 13.1975 13.5829C12.9272 13.5829 12.6775 13.5829 12.4124 13.5829C12.3873 13.355 12.3528 13.136 12.3433 12.9169C12.3346 12.7215 12.4728 12.6085 12.6646 12.6391C12.8356 12.6663 13.0066 12.7066 13.1975 12.7452V12.7452Z" fill="white"/>
<path d="M26.5647 20.9005C26.4714 21.0924 26.3409 21.1406 26.1613 21.1187C26.0153 21.1011 25.865 21.1152 25.6949 21.1152C25.6543 20.833 25.618 20.5806 25.58 20.3143C25.7968 20.1881 26.0421 20.2179 26.2693 20.1741C26.3038 20.1671 26.3789 20.2538 26.398 20.3099C26.4619 20.5035 26.5102 20.7033 26.5647 20.9005Z" fill="white"/>
<path d="M12.4279 14.7746C12.3778 14.5494 12.3286 14.3513 12.2906 14.1507C12.2491 13.9255 12.3243 13.8387 12.5549 13.8352C12.7475 13.8326 12.9401 13.8343 13.1586 13.8343C13.1586 14.1226 13.1586 14.3794 13.1586 14.6589C12.9332 14.6948 12.6931 14.7325 12.4279 14.7746V14.7746Z" fill="white"/>
<path d="M16.1014 11.2801C15.9571 11.528 15.8319 11.7427 15.6989 11.9705C15.4622 11.8663 15.2385 11.7681 14.9906 11.6586C15.0787 11.422 15.1547 11.1951 15.2471 10.976C15.2981 10.8542 15.4069 10.8165 15.5045 10.8778C15.6997 11.0005 15.8863 11.1337 16.1014 11.2801V11.2801Z" fill="white"/>
<path d="M26.0239 16.1038C25.8313 15.897 25.6629 15.7157 25.4763 15.5141C25.6154 15.3389 25.7683 15.1461 25.9419 14.927C26.1475 15.0751 26.3496 15.2118 26.5413 15.3625C26.6303 15.4326 26.6199 15.5737 26.5206 15.6692C26.3677 15.8156 26.2027 15.9487 26.0239 16.1038V16.1038Z" fill="white"/>
<path d="M14.7574 22.9895C14.4879 22.9632 14.2513 22.9474 14.0172 22.9141C13.8954 22.8975 13.8531 22.7967 13.898 22.6372C13.9559 22.4322 14.0284 22.2324 14.107 21.9932C14.3497 22.0641 14.5821 22.1325 14.8464 22.2096C14.817 22.4628 14.7894 22.7064 14.7574 22.9895V22.9895Z" fill="white"/>
<path d="M14.6114 11.8347C14.532 12.102 14.456 12.3561 14.3765 12.6225C14.1148 12.562 13.8773 12.5077 13.619 12.4481C13.651 12.2168 13.6717 11.996 13.7149 11.7804C13.7529 11.5876 13.8678 11.5236 14.0414 11.5894C14.2297 11.6612 14.4128 11.7488 14.6114 11.8347Z" fill="white"/>
<path d="M21.1119 24.2785C21.2898 24.069 21.4505 23.8806 21.6215 23.6791C21.8418 23.8307 22.0439 23.9691 22.2607 24.1181C22.1346 24.3354 22.0231 24.5369 21.9014 24.7315C21.8202 24.8612 21.7061 24.8761 21.5913 24.7683C21.4289 24.6167 21.2803 24.452 21.1119 24.2785V24.2785Z" fill="white"/>
<path d="M22.1726 11.2021C21.9152 11.2327 21.675 11.2617 21.4125 11.2932C21.3468 11.0294 21.2881 10.7929 21.2242 10.5396C21.4574 10.4686 21.6647 10.3994 21.8763 10.3425C22.0439 10.2978 22.1544 10.3687 22.1682 10.5475C22.1855 10.7517 22.1726 10.9576 22.1726 11.2021Z" fill="white"/>
<path d="M19.1754 11.0846C19.0208 10.8612 18.8861 10.6649 18.7323 10.4432C18.931 10.2943 19.1227 10.1444 19.3222 10.006C19.4129 9.94288 19.5174 9.95778 19.5693 10.0638C19.6738 10.2767 19.7662 10.4976 19.8733 10.7368C19.634 10.8568 19.4164 10.9646 19.1754 11.0846Z" fill="white"/>
<path d="M24.4986 22.2438C24.5297 21.9721 24.5573 21.7259 24.5867 21.4639C24.8355 21.4639 25.0782 21.4639 25.3597 21.4639C25.3744 21.7189 25.3977 21.9651 25.4003 22.2114C25.4012 22.3235 25.25 22.4164 25.1222 22.3901C24.9253 22.3507 24.7309 22.299 24.4986 22.2438V22.2438Z" fill="white"/>
<path d="M17.9852 23.9358C18.0957 24.1812 18.1942 24.4002 18.3039 24.6447C18.0845 24.7849 17.853 24.8918 17.6215 24.9961C17.5283 25.0382 17.435 24.9602 17.3996 24.8287C17.3443 24.6228 17.2959 24.4151 17.238 24.1777C17.479 24.0997 17.7183 24.0226 17.9852 23.9358V23.9358Z" fill="white"/>
<path d="M12.4884 16.1757C12.5886 16.4237 12.681 16.6524 12.7864 16.9118C12.5635 17.0397 12.3459 17.165 12.1092 17.3017C11.9719 17.0739 11.8423 16.8723 11.7283 16.662C11.6739 16.5621 11.7101 16.4631 11.8207 16.4202C12.0332 16.3369 12.2491 16.2625 12.4884 16.1757Z" fill="white"/>
<path d="M19.5684 24.211C19.7757 24.0585 19.9666 23.9183 20.1868 23.7571C20.3699 23.9385 20.5487 24.1155 20.7396 24.3047C20.5652 24.4852 20.4097 24.6544 20.2438 24.8147C20.1246 24.9304 20.0599 24.9225 19.9649 24.7902C19.8344 24.6106 19.7126 24.4239 19.5684 24.211Z" fill="white"/>
<path d="M12.6672 19.7167C12.4651 19.5484 12.2811 19.3977 12.1006 19.2426C12.003 19.1585 12.0228 19.0691 12.1092 18.992C12.2811 18.8386 12.4564 18.6897 12.6551 18.5171C12.82 18.7125 12.979 18.9009 13.1509 19.1042C12.9954 19.3013 12.8442 19.4932 12.6672 19.7167Z" fill="white"/>
<path d="M12.7052 20.0759C12.9246 20.2301 13.1319 20.3756 13.3512 20.5298C13.2217 20.7699 13.1051 20.9872 12.9781 21.2221C12.7579 21.1134 12.5523 21.017 12.3519 20.9101C12.2163 20.8374 12.1835 20.7226 12.2733 20.6025C12.4046 20.4273 12.5514 20.2626 12.7052 20.0759Z" fill="white"/>
<path d="M17.6086 11.0969C17.4117 11.2792 17.238 11.4395 17.0385 11.6253C16.8563 11.5018 16.649 11.3607 16.4287 11.2108C16.579 10.9935 16.7129 10.7972 16.8485 10.6018C16.9185 10.5019 17.0005 10.487 17.0904 10.5773C17.2527 10.7385 17.4143 10.9015 17.6086 11.0969V11.0969Z" fill="white"/>
<path d="M23.2816 12.3097C23.0156 12.279 22.7824 12.2518 22.5189 12.2212C22.4965 11.9618 22.4749 11.7094 22.4507 11.4343C22.7694 11.3966 23.0518 11.3984 23.3723 11.4211C23.3412 11.7269 23.3136 11.9986 23.2816 12.3097Z" fill="white"/>
<path d="M24.9546 13.9316C24.7042 13.8072 24.4908 13.7012 24.2524 13.5837C24.331 13.3393 24.4088 13.0983 24.4926 12.8398C24.7344 12.9125 24.9616 12.9747 25.1853 13.0501C25.3019 13.0887 25.3425 13.1868 25.2863 13.3042C25.187 13.511 25.073 13.7108 24.9546 13.9316Z" fill="white"/>
<path d="M23.1339 23.0377C23.2315 22.7827 23.3205 22.5522 23.4181 22.2981C23.6711 22.3577 23.9078 22.4129 24.1704 22.4751C24.1177 22.7205 24.0762 22.9474 24.0201 23.17C23.9778 23.3365 23.9104 23.3671 23.748 23.3032C23.5502 23.2261 23.3585 23.1358 23.1339 23.0377Z" fill="white"/>
<path d="M13.3711 15.6359C13.1232 15.7209 12.8935 15.7998 12.6369 15.8883C12.5566 15.6333 12.4806 15.4002 12.4098 15.1645C12.3761 15.0523 12.44 14.9901 12.5393 14.9752C12.7639 14.9402 12.9902 14.9148 13.2225 14.885C13.3521 15.1172 13.3132 15.366 13.3711 15.6359V15.6359Z" fill="white"/>
<path d="M26.1311 19.0043C26.2235 19.2444 26.3159 19.4625 26.3919 19.6877C26.4264 19.7911 26.3833 19.8919 26.271 19.9156C26.0421 19.9646 25.8097 19.9988 25.567 20.0409C25.5143 19.8095 25.4668 19.6045 25.4228 19.3986C25.4046 19.3127 25.4219 19.2373 25.5169 19.2058C25.7147 19.141 25.9125 19.0761 26.1311 19.0043V19.0043Z" fill="white"/>
<path d="M25.7329 17.9414C25.8547 18.2314 26.0179 18.4645 26.0939 18.7703C25.8201 18.8693 25.567 18.9613 25.2785 19.0656C25.1982 18.8185 25.1274 18.6012 25.0462 18.3532C25.2509 18.1981 25.4815 18.0938 25.7329 17.9414V17.9414Z" fill="white"/>
<path d="M24.6713 14.9314C24.8044 14.6887 24.9192 14.4784 25.0471 14.2444C25.2716 14.3759 25.485 14.4977 25.694 14.6247C25.7907 14.6834 25.789 14.7605 25.7182 14.8473C25.5679 15.0331 25.4211 15.2215 25.2578 15.4283C25.0574 15.2583 24.8717 15.1014 24.6713 14.9314Z" fill="white"/>
<path d="M25.8089 17.6653C25.675 17.4401 25.5489 17.229 25.4098 16.9959C25.6042 16.8294 25.7951 16.6655 25.9998 16.4903C26.1673 16.6831 26.328 16.8583 26.4774 17.0441C26.5569 17.1431 26.5344 17.2421 26.4204 17.3113C26.2252 17.4305 26.0257 17.54 25.8089 17.6653V17.6653Z" fill="white"/>
<path d="M14.2176 20.9688C14.1346 21.2273 14.0578 21.4639 13.9766 21.7163C13.695 21.6295 13.429 21.5314 13.1414 21.3833C13.2908 21.1064 13.4272 20.8532 13.5724 20.5842C13.803 20.7217 13.999 20.8391 14.2176 20.9688V20.9688Z" fill="white"/>
<path d="M15.7973 22.3095C15.8138 22.5715 15.8284 22.809 15.8431 23.0613C15.5659 23.113 15.3119 23.0876 15.0614 23.078C15.026 23.0762 14.9621 22.993 14.9664 22.9527C14.988 22.7406 15.0286 22.5303 15.0606 22.3191C15.0779 22.2026 15.1564 22.1693 15.2515 22.1868C15.4303 22.2192 15.6073 22.2657 15.7973 22.3095V22.3095Z" fill="white"/>
<path d="M20.4762 11.5657C20.3691 11.3282 20.2672 11.1031 20.1549 10.8551C20.4252 10.7289 20.6818 10.6097 20.9962 10.5387C21.0592 10.7964 21.1223 11.033 21.1741 11.2722C21.1974 11.3817 21.1292 11.4316 21.0272 11.4509C20.8554 11.4833 20.6843 11.5219 20.4762 11.5657V11.5657Z" fill="white"/>
<path d="M22.4351 23.9682C22.189 23.7983 21.9653 23.6449 21.7364 23.4863C21.8046 23.2252 21.9989 23.071 22.1207 22.8317C22.366 22.9386 22.5958 23.0394 22.8506 23.1498C22.7115 23.4311 22.6087 23.7027 22.4351 23.9682V23.9682Z" fill="white"/>
<path d="M24.5867 21.2273C24.5867 20.9417 24.5867 20.7112 24.5867 20.4422C24.8311 20.4019 25.0764 20.3607 25.3571 20.3143C25.3951 20.5806 25.434 20.8242 25.4617 21.0678C25.472 21.1616 25.4124 21.2238 25.32 21.2264C25.0833 21.2308 24.8467 21.2273 24.5867 21.2273V21.2273Z" fill="white"/>
<path d="M16.0867 24.1821C16.0591 23.9385 16.0357 23.7536 16.0193 23.5678C16.0115 23.4802 16.0176 23.3908 16.0176 23.2725C16.2612 23.2611 16.4952 23.2497 16.7604 23.2375C16.8235 23.4793 16.8865 23.7159 16.9556 23.9805C16.6775 24.0971 16.3976 24.1225 16.0867 24.1821V24.1821Z" fill="white"/>
<path d="M15.3473 12.8836C15.0969 12.8249 14.8619 12.7697 14.5898 12.7057C14.6753 12.4096 14.7548 12.1362 14.8412 11.8374C15.1029 11.9486 15.3275 12.0424 15.5503 12.1405C15.6427 12.1817 15.6453 12.2606 15.6065 12.343C15.5235 12.5182 15.4389 12.6926 15.3473 12.8836Z" fill="white"/>
<path d="M20.9201 24.1838C20.7362 24.0016 20.5755 23.85 20.4244 23.6896C20.3129 23.5722 20.3199 23.4837 20.4425 23.3715C20.56 23.2646 20.6861 23.1674 20.8286 23.0482C21.0316 23.1858 21.2397 23.326 21.479 23.4881C21.289 23.7238 21.1154 23.9411 20.9201 24.1838V24.1838Z" fill="white"/>
<path d="M24.2775 22.2622C24.0011 22.2008 23.7532 22.1535 23.5113 22.0861C23.4682 22.0738 23.4129 21.9686 23.4241 21.9204C23.4664 21.7312 23.5329 21.548 23.5865 21.3763C23.8534 21.3763 24.0961 21.3763 24.3699 21.3763C24.3388 21.6716 24.3112 21.9353 24.2775 22.2622V22.2622Z" fill="white"/>
<path d="M12.161 17.5216C12.4348 17.3639 12.6689 17.2298 12.9142 17.0888C13.1059 17.2666 13.1465 17.5146 13.2951 17.7302C13.0964 17.9046 12.9073 18.0702 12.6914 18.2594C12.516 18.0158 12.3536 17.7898 12.161 17.5216V17.5216Z" fill="white"/>
<path d="M23.3317 13.3156C23.3628 13.0562 23.3913 12.81 23.425 12.5252C23.7195 12.5883 23.9968 12.6479 24.3008 12.7127C24.2144 12.98 24.1393 13.2078 24.0693 13.4365C24.0382 13.5364 23.9683 13.5644 23.8845 13.5347C23.7031 13.4698 23.526 13.3936 23.3317 13.3156V13.3156Z" fill="white"/>
<path d="M14.3419 12.8521C14.291 13.1123 14.2461 13.3463 14.1986 13.5899C13.9429 13.5899 13.6976 13.5899 13.4186 13.5899C13.4324 13.3235 13.4385 13.0676 13.4609 12.8135C13.4704 12.6996 13.5611 12.6777 13.6605 12.6996C13.8738 12.7469 14.088 12.796 14.3419 12.8521Z" fill="white"/>
<path d="M18.8472 23.5012C18.9992 23.722 19.1391 23.9253 19.2989 24.1584C19.0493 24.3109 18.8135 24.4563 18.5552 24.6141C18.3868 24.3652 18.3091 24.0936 18.1752 23.8202C18.3773 23.6581 18.6192 23.6134 18.8472 23.5012Z" fill="white"/>
<path d="M18.4214 11.6586C18.2357 11.4676 18.069 11.2958 17.8902 11.1118C18.0577 10.8971 18.2788 10.7385 18.5138 10.5501C18.7211 10.749 18.8429 11.0058 19.0208 11.2397C18.848 11.4518 18.6192 11.5385 18.4214 11.6586V11.6586Z" fill="white"/>
<path d="M13.0567 16.8969C12.8624 16.6594 12.8287 16.3702 12.6853 16.0942C12.9341 16.0083 13.1465 15.9242 13.3651 15.8638C13.4955 15.8278 13.5801 15.8971 13.6121 16.0373C13.6458 16.1845 13.6708 16.3343 13.7054 16.5087C13.4955 16.634 13.2856 16.7602 13.0567 16.8969Z" fill="white"/>
<path d="M25.3425 20.0969C25.1041 20.1381 24.8821 20.1854 24.6575 20.2117C24.5228 20.2275 24.4554 20.1592 24.4364 20.0014C24.4174 19.8428 24.4183 19.6807 24.4096 19.5028C24.6489 19.4161 24.8769 19.3337 25.1308 19.2417C25.2613 19.5125 25.282 19.7938 25.3425 20.0969V20.0969Z" fill="white"/>
<path d="M22.9283 22.9544C22.6934 22.8528 22.4835 22.7678 22.2788 22.6723C22.1536 22.6136 22.1605 22.4944 22.208 22.3954C22.2797 22.2455 22.3755 22.1071 22.4628 21.9599C22.6683 22.0011 22.8566 22.0335 23.0432 22.0782C23.1797 22.1106 23.2203 22.1816 23.1745 22.3148C23.1054 22.5163 23.0225 22.7126 22.9283 22.9544V22.9544Z" fill="white"/>
<path d="M13.4152 13.8352C13.6449 13.8352 13.8721 13.8291 14.0984 13.8378C14.2323 13.8431 14.2798 13.9115 14.2651 14.0534C14.2478 14.212 14.2202 14.3697 14.1977 14.5292C14.0491 14.6177 13.6976 14.6808 13.416 14.6598C13.4152 14.3925 13.4152 14.1209 13.4152 13.8352V13.8352Z" fill="white"/>
<path d="M13.904 19.6842C13.7814 19.9147 13.6656 20.1311 13.5378 20.3712C13.2675 20.2258 13.061 20.0487 12.8175 19.877C12.9703 19.6816 13.1111 19.4906 13.2649 19.3109C13.3487 19.2128 13.454 19.2312 13.543 19.3188C13.6622 19.4362 13.7788 19.5572 13.904 19.6842V19.6842Z" fill="white"/>
<path d="M21.5654 12.2913C21.5049 12.0363 21.4496 11.8049 21.3857 11.5377C21.682 11.4939 21.9471 11.4553 22.2503 11.4106C22.265 11.6691 22.2814 11.8987 22.2909 12.1291C22.2969 12.2641 22.2218 12.3263 22.094 12.3219C21.9273 12.314 21.7606 12.3018 21.5654 12.2913V12.2913Z" fill="white"/>
<path d="M17.1577 23.9402C17.1033 23.7027 17.0515 23.4784 16.9997 23.2541C16.9712 23.1314 17.0368 23.0718 17.1404 23.0368C17.1482 23.0342 17.1577 23.035 17.1672 23.035C17.3313 23.0245 17.4963 23.0149 17.6604 23.0044C17.7537 23.1963 17.853 23.3855 17.9351 23.5827C17.9506 23.6204 17.9118 23.7229 17.8772 23.7352C17.6475 23.8158 17.422 23.9165 17.1577 23.9402Z" fill="white"/>
<path d="M25.2492 15.6876C25.4547 15.9084 25.6439 16.1109 25.8512 16.3325C25.6854 16.4727 25.4988 16.6322 25.3096 16.7873C25.2198 16.8609 25.1438 16.8197 25.0851 16.7374C24.9832 16.5928 24.8847 16.4465 24.7724 16.2826C24.9322 16.0828 25.0903 15.8857 25.2492 15.6876V15.6876Z" fill="white"/>
<path d="M14.1778 21.7802C14.253 21.5471 14.3117 21.3509 14.38 21.159C14.437 20.9977 14.5337 20.9487 14.684 21.0118C14.8282 21.0722 14.9647 21.152 15.0969 21.2203C15.0804 21.4192 15.0727 21.5962 15.0493 21.7706C15.0217 21.9748 14.9647 22.0124 14.7712 21.9599C14.5795 21.9055 14.3895 21.8442 14.1778 21.7802V21.7802Z" fill="white"/>
<path d="M16.5799 12.4551C16.3527 12.3587 16.1359 12.2658 15.8906 12.1616C15.9701 11.8663 16.1549 11.6446 16.2992 11.3817C16.4944 11.5149 16.6714 11.6306 16.8425 11.7541C16.9841 11.8558 17.0014 11.953 16.8969 12.0906C16.8053 12.2098 16.6999 12.3184 16.5799 12.4551Z" fill="white"/>
<path d="M24.864 14.1314C24.7517 14.3443 24.6601 14.5275 24.5608 14.7053C24.4718 14.8657 24.3716 14.8902 24.2153 14.7886C24.0901 14.7071 23.9726 14.6133 23.8413 14.5178C23.9069 14.304 23.9674 14.0999 24.0339 13.8974C24.0633 13.8072 24.1263 13.7686 24.2196 13.8142C24.4252 13.915 24.6299 14.0166 24.864 14.1314Z" fill="white"/>
<path d="M19.0225 23.3925C19.0847 23.0666 19.362 23.0692 19.571 22.9465C19.7144 23.0788 19.8552 23.2015 19.9856 23.333C20.1022 23.4504 20.0979 23.5476 19.9718 23.6449C19.8111 23.7693 19.6435 23.8841 19.4587 24.0173C19.3093 23.8018 19.1685 23.6002 19.0225 23.3925V23.3925Z" fill="white"/>
<path d="M17.7269 11.2713C17.9213 11.4763 18.0906 11.6551 18.2668 11.8417C18.2788 12.1397 18.005 12.194 17.8193 12.3517C17.6552 12.2466 17.4911 12.1484 17.3339 12.0389C17.213 11.9548 17.1957 11.8557 17.2873 11.748C17.4246 11.5876 17.5732 11.4369 17.7269 11.2713V11.2713Z" fill="white"/>
<path d="M23.216 12.5278C23.1857 12.7627 23.1624 12.966 23.1313 13.1666C23.1054 13.3305 22.994 13.4085 22.8307 13.3699C22.6951 13.3375 22.5647 13.2858 22.423 13.2402C22.4049 13.0334 22.3859 12.8302 22.3712 12.626C22.3634 12.52 22.4265 12.4376 22.5215 12.4437C22.7469 12.4577 22.9707 12.4963 23.216 12.5278V12.5278Z" fill="white"/>
<path d="M19.9631 10.9357C20.0642 11.1618 20.1566 11.3615 20.2421 11.5648C20.2931 11.6866 20.2482 11.7935 20.1342 11.8505C20.1186 11.8584 20.0996 11.8575 20.0832 11.8636C19.6677 12.0187 19.6677 12.0187 19.4078 11.6472C19.1832 11.3265 19.1832 11.3265 19.5261 11.1547C19.66 11.0882 19.7938 11.0207 19.9631 10.9357V10.9357Z" fill="white"/>
<path d="M25.6163 17.7705C25.4029 17.8923 25.2069 18.0062 25.0091 18.1157C24.9806 18.1315 24.9391 18.1359 24.9071 18.1298C24.6696 18.0833 24.7033 17.8459 24.6126 17.6951C24.5487 17.5882 24.5893 17.512 24.6739 17.4419C24.7828 17.3516 24.8864 17.2553 24.9952 17.165C25.1188 17.0634 25.1879 17.0695 25.2742 17.2018C25.3891 17.3797 25.4928 17.5646 25.6163 17.7705Z" fill="white"/>
<path d="M16.0357 23.0324C16.0271 22.787 16.0133 22.5671 16.0159 22.3463C16.0167 22.2359 16.1618 22.1246 16.2776 22.1386C16.4158 22.1553 16.5514 22.1877 16.6922 22.214C16.7405 22.3919 16.7924 22.5619 16.8312 22.7345C16.8761 22.9351 16.8105 23.0236 16.6144 23.0306C16.4313 23.0377 16.2491 23.0324 16.0357 23.0324Z" fill="white"/>
<path d="M12.8434 18.3935C13.0239 18.2402 13.1699 18.1105 13.3219 17.9887C13.4627 17.8756 13.5922 17.8975 13.6924 18.05C13.765 18.1613 13.8263 18.2787 13.9006 18.4084C13.7771 18.574 13.6579 18.7387 13.5326 18.8982C13.4618 18.9885 13.3642 19.0113 13.2821 18.9201C13.1362 18.7571 13.0006 18.5836 12.8434 18.3935V18.3935Z" fill="white"/>
<path d="M14.7073 20.0505C14.6529 20.2468 14.608 20.4282 14.551 20.606C14.5043 20.7524 14.3929 20.8085 14.2651 20.741C14.0871 20.6472 13.917 20.5359 13.7382 20.4282C13.8375 20.238 13.9239 20.0628 14.0189 19.891C14.101 19.7421 14.253 19.7026 14.3955 19.7981C14.4974 19.8674 14.5881 19.9532 14.7073 20.0505Z" fill="white"/>
<path d="M24.3431 21.1397C24.1013 21.1397 23.8802 21.1563 23.6642 21.1301C23.5934 21.1213 23.482 21.0004 23.4837 20.9338C23.4872 20.7778 23.5312 20.6166 23.5917 20.4711C23.6349 20.3677 24.2023 20.2897 24.293 20.3633C24.3293 20.3931 24.363 20.4518 24.363 20.4965C24.3639 20.7095 24.3518 20.9224 24.3431 21.1397V21.1397Z" fill="white"/>
<path d="M13.5283 14.8911C13.7339 14.8552 13.923 14.814 14.1148 14.7938C14.1744 14.7877 14.2513 14.8228 14.3005 14.8631C14.3886 14.934 14.4257 15.3581 14.3601 15.4484C14.3402 15.4756 14.3083 15.4983 14.2772 15.5106C14.1217 15.572 13.9654 15.6333 13.8064 15.685C13.7071 15.7174 13.6 15.6578 13.5905 15.579C13.5655 15.3546 13.473 15.1312 13.5283 14.8911Z" fill="white"/>
<path d="M21.5446 23.2839C21.3702 23.1665 21.2225 23.0701 21.0782 22.9693C20.9072 22.8493 20.8899 22.6863 21.0247 22.5224C21.0981 22.4339 21.1654 22.3402 21.2337 22.2508C21.4626 22.3428 21.644 22.4068 21.8176 22.4874C21.9532 22.5505 21.9791 22.6644 21.8953 22.7879C21.7847 22.9553 21.6655 23.1157 21.5446 23.2839Z" fill="white"/>
<path d="M22.1657 12.5331C22.1829 12.7268 22.1924 12.8775 22.2114 13.0273C22.2391 13.2481 22.1942 13.3322 21.992 13.4137C21.8193 13.483 21.5697 13.3603 21.5153 13.1807C21.4842 13.0781 21.4513 12.9765 21.4237 12.8731C21.3753 12.6891 21.4643 12.5471 21.6465 12.5357C21.8124 12.5252 21.9791 12.5331 22.1657 12.5331V12.5331Z" fill="white"/>
<path d="M25.035 19.0612C24.794 19.1506 24.5815 19.2295 24.3673 19.3083C24.0857 19.1743 24.0978 18.9201 24.0875 18.6634C24.2429 18.567 24.3906 18.4689 24.5444 18.3839C24.7059 18.2945 24.8018 18.333 24.8674 18.5153C24.9261 18.6809 24.9711 18.8527 25.035 19.0612V19.0612Z" fill="white"/>
<path d="M25.0773 15.5711C24.9443 15.7384 24.8337 15.8883 24.7119 16.0276C24.5677 16.1923 24.414 16.188 24.2654 16.0197C24.1894 15.9338 24.1255 15.8375 24.0512 15.7393C24.1315 15.5807 24.2041 15.4291 24.2835 15.281C24.3889 15.0848 24.483 15.0655 24.6593 15.2083C24.7957 15.3196 24.9261 15.4396 25.0773 15.5711V15.5711Z" fill="white"/>
<path d="M15.197 13.7677C14.9742 13.7677 14.7894 13.773 14.6054 13.766C14.4326 13.7599 14.4015 13.7213 14.4318 13.5548C14.4681 13.3542 14.5121 13.1561 14.5587 12.9248C14.7989 12.9756 15.0208 13.0133 15.2376 13.0711C15.3482 13.1009 15.4009 13.2359 15.3603 13.355C15.3111 13.497 15.2506 13.6337 15.197 13.7677V13.7677Z" fill="white"/>
<path d="M21.1974 11.6428C21.2484 11.8426 21.2993 12.0205 21.3382 12.2019C21.3814 12.4034 21.2734 12.5436 21.0653 12.5646C20.9607 12.5752 20.8545 12.5752 20.7249 12.5813C20.6403 12.4052 20.5513 12.2334 20.4745 12.0555C20.4105 11.9083 20.4727 11.7909 20.6291 11.7559C20.8079 11.7147 20.9892 11.684 21.1974 11.6428Z" fill="white"/>
<path d="M15.8414 12.3587C16.0409 12.4446 16.2033 12.5103 16.3622 12.5857C16.5583 12.6777 16.6023 12.8608 16.4771 13.0422C16.4218 13.1219 16.3631 13.1982 16.2923 13.2946C16.1083 13.2648 15.9191 13.242 15.7334 13.2017C15.6039 13.1736 15.5339 13.0369 15.5857 12.9081C15.6574 12.7276 15.749 12.555 15.8414 12.3587V12.3587Z" fill="white"/>
<path d="M17.8556 22.9124C17.9359 22.5934 18.1907 22.5969 18.4447 22.5601C18.5544 22.7056 18.6744 22.8572 18.7867 23.014C18.8627 23.1209 18.823 23.2506 18.7021 23.3207C18.6865 23.3295 18.671 23.3391 18.6554 23.3452C18.5008 23.4074 18.3454 23.4688 18.1579 23.5433C18.0543 23.3277 17.9524 23.1148 17.8556 22.9124V22.9124Z" fill="white"/>
<path d="M23.2004 21.9117C22.9732 21.8644 22.7504 21.8284 22.5371 21.7636C22.4852 21.7478 22.4515 21.6357 22.4291 21.5621C22.3695 21.3605 22.5742 21.0827 22.7798 21.0775C22.8774 21.0749 22.9741 21.0749 23.0717 21.0775C23.3023 21.0845 23.3939 21.1993 23.3464 21.4201C23.3412 21.4464 23.3265 21.4701 23.3187 21.4955C23.2825 21.6234 23.2462 21.7513 23.2004 21.9117V21.9117Z" fill="white"/>
<path d="M20.2136 23.2778C20.0668 23.1428 19.9251 23.0228 19.7973 22.8887C19.7567 22.8458 19.7334 22.7634 19.7377 22.7012C19.7584 22.3629 20.0486 22.2166 20.3337 22.3962C20.446 22.4672 20.5565 22.5399 20.6593 22.6065C20.7137 22.7958 20.6679 22.929 20.5099 23.0307C20.408 23.0955 20.3216 23.1857 20.2136 23.2778V23.2778Z" fill="white"/>
<path d="M13.1889 17.0485C13.3789 16.9363 13.5464 16.8417 13.7097 16.7391C13.8125 16.6743 13.8954 16.7216 13.9783 16.7724C14.1813 16.8969 14.215 17.2202 14.044 17.3806C13.9602 17.4594 13.8824 17.5453 13.7943 17.6207C13.6691 17.7276 13.524 17.7048 13.4428 17.5593C13.3573 17.4042 13.2847 17.2412 13.1889 17.0485Z" fill="white"/>
<path d="M23.8594 13.7634C23.7929 13.9868 23.7402 14.1927 23.6694 14.3908C23.628 14.5064 23.4388 14.552 23.298 14.4889C23.2177 14.453 23.1408 14.4065 23.0717 14.3513C23.0354 14.3224 23.0009 14.2655 23.0017 14.2216C23.0035 14.0701 23.0147 13.9176 23.0337 13.7677C23.057 13.5837 23.1823 13.5022 23.3542 13.5609C23.5131 13.6144 23.666 13.6845 23.8594 13.7634Z" fill="white"/>
<path d="M19.0778 11.5263C19.1875 11.6787 19.2842 11.8277 19.3957 11.9635C19.4915 12.0801 19.476 12.187 19.4086 12.3061C19.2989 12.4998 18.9906 12.562 18.8265 12.4166C18.7401 12.3394 18.6546 12.2606 18.5777 12.1747C18.4602 12.0424 18.4818 11.8934 18.633 11.7953C18.7738 11.7042 18.9197 11.6209 19.0778 11.5263V11.5263Z" fill="white"/>
<path d="M15.2178 21.9423C15.2463 21.6996 15.2705 21.4893 15.2972 21.2659C15.4087 21.1993 15.5158 21.0827 15.6704 21.1467C15.9744 21.2729 15.9934 21.215 16.0081 21.5945C16.0107 21.6654 16.015 21.7373 16.0159 21.8083C16.0176 21.9853 15.9079 22.0913 15.7326 22.0633C15.5684 22.037 15.4095 21.9888 15.2178 21.9423V21.9423Z" fill="white"/>
<path d="M17.137 12.1432C17.2968 12.2457 17.4315 12.3298 17.5637 12.4174C17.7433 12.5366 17.7589 12.8065 17.5991 12.9563C17.4747 13.0729 17.346 13.1421 17.1776 13.0352C17.1119 12.9931 17.0316 12.9747 16.9591 12.9441C16.757 12.86 16.7051 12.6803 16.839 12.5059C16.934 12.3815 17.0377 12.2632 17.137 12.1432V12.1432Z" fill="white"/>
<path d="M24.2308 20.118C24.0218 20.1539 23.8344 20.1863 23.6461 20.2179C23.5139 20.2398 23.4587 20.132 23.3999 20.0496C23.2695 19.8683 23.3524 19.5931 23.5545 19.509C23.6435 19.4713 23.7325 19.4354 23.8232 19.4021C24.0287 19.3258 24.1738 19.4082 24.1989 19.6229C24.2162 19.7719 24.2187 19.9235 24.2308 20.118V20.118Z" fill="white"/>
<path d="M14.6097 18.9114C14.5285 19.0831 14.4646 19.2312 14.3895 19.3723C14.291 19.5589 14.1372 19.5817 13.9844 19.4371C13.8747 19.3337 13.7676 19.2277 13.6423 19.1068C13.7468 18.8991 13.8937 18.7352 14.0414 18.5758C14.1096 18.503 14.3661 18.5696 14.4473 18.6625C14.4646 18.6827 14.4801 18.7046 14.494 18.7274C14.5328 18.7869 14.57 18.8474 14.6097 18.9114V18.9114Z" fill="white"/>
<path d="M13.8168 15.8892C14.0284 15.8077 14.2228 15.7332 14.424 15.6561C14.5803 15.7753 14.7583 15.8629 14.7289 16.1126C14.7177 16.2108 14.69 16.2817 14.6071 16.3334C14.4646 16.4219 14.3238 16.5131 14.1951 16.5963C13.803 16.4938 13.8807 16.1669 13.8168 15.8892V15.8892Z" fill="white"/>
<path d="M14.4905 13.9737C14.7462 13.9868 14.9656 13.9973 15.2152 14.0096C15.2523 14.1244 15.324 14.24 15.3197 14.3522C15.3102 14.6002 15.21 14.6852 14.9612 14.729C14.8749 14.7439 14.7894 14.7667 14.703 14.7789C14.5778 14.7965 14.4154 14.6799 14.4214 14.559C14.4301 14.3741 14.4629 14.1901 14.4905 13.9737Z" fill="white"/>
<path d="M15.6004 13.3594C15.8345 13.4085 16.0392 13.4505 16.2525 13.4952C16.2819 13.6827 16.4192 13.8554 16.2603 14.0315C16.2119 14.0858 16.1411 14.1349 16.0729 14.1515C15.9718 14.1761 15.863 14.1726 15.7576 14.1734C15.4994 14.1761 15.362 13.9789 15.451 13.7344C15.4933 13.6188 15.5425 13.504 15.6004 13.3594V13.3594Z" fill="white"/>
<path d="M20.2516 12.0424C20.3268 12.1984 20.3881 12.3272 20.4511 12.4542C20.5064 12.5664 20.5652 12.6637 20.4563 12.7942C20.3458 12.9265 20.2404 13.0299 20.0599 12.9888C20.0115 12.9782 19.9562 12.9546 19.9251 12.9178C19.8318 12.8109 19.742 12.6987 19.6626 12.5804C19.5762 12.4516 19.6453 12.2466 19.799 12.1844C19.9372 12.13 20.0832 12.0941 20.2516 12.0424V12.0424Z" fill="white"/>
<path d="M24.9564 16.9319C24.8078 17.0642 24.6808 17.1878 24.5426 17.2973C24.3803 17.4261 24.1807 17.3788 24.0788 17.1983C23.9372 16.9477 23.9389 16.9345 24.116 16.7006C24.1591 16.6436 24.1972 16.584 24.2403 16.5271C24.388 16.3352 24.5383 16.3387 24.6852 16.5402C24.7741 16.6629 24.857 16.7882 24.9564 16.9319V16.9319Z" fill="white"/>
<path d="M17.0454 22.7818C17.0066 22.6337 16.9703 22.4961 16.9349 22.3586C16.8727 22.1185 17.0178 21.9187 17.2648 21.9038C17.3348 21.8994 17.4048 21.9029 17.4877 21.9029C17.5758 22.0764 17.6552 22.2455 17.7459 22.4085C17.8332 22.5636 17.6811 22.6302 17.6483 22.7467C17.4428 22.7494 17.251 22.8668 17.0454 22.7818Z" fill="white"/>
<path d="M24.5513 18.1525C24.3466 18.2778 24.1669 18.3874 23.9959 18.4916C23.7515 18.3996 23.5779 18.2699 23.602 17.972C23.7031 17.8686 23.8111 17.7503 23.9268 17.6417C24.0702 17.5076 24.3025 17.547 24.388 17.724C24.4502 17.852 24.49 17.9895 24.5513 18.1525V18.1525Z" fill="white"/>
<path d="M23.8802 15.6359C23.6755 15.6587 23.4854 15.6903 23.3446 15.494C23.254 15.3669 23.3611 14.8026 23.5036 14.7527C23.5986 14.7194 23.7014 14.6843 23.8024 14.7667C23.9182 14.8613 24.0443 14.941 24.1877 15.0427C24.0814 15.2486 23.9804 15.4431 23.8802 15.6359V15.6359Z" fill="white"/>
<path d="M18.9975 22.9816C18.8826 22.8256 18.7867 22.6977 18.6934 22.5689C18.601 22.4401 18.6287 22.2701 18.7643 22.1193C18.8705 22.0011 19.0346 21.9783 19.1642 22.079C19.2963 22.1816 19.4181 22.2964 19.5304 22.3936C19.5796 22.8221 19.2307 22.83 18.9975 22.9816Z" fill="white"/>
<path d="M21.9765 22.3393C21.758 22.2499 21.5705 22.1728 21.3753 22.0931C21.3373 21.8933 21.2587 21.6952 21.4669 21.5323C21.6008 21.4271 22.1052 21.4893 22.1924 21.6339C22.2494 21.7285 22.2823 21.8328 22.2218 21.938C22.1466 22.0694 22.0646 22.1956 21.9765 22.3393V22.3393Z" fill="white"/>
<path d="M13.8323 17.8441C13.9956 17.6925 14.1511 17.5488 14.3186 17.3937C14.4136 17.434 14.5138 17.469 14.6054 17.5181C14.7755 17.6084 14.8187 17.7792 14.7159 17.9396C14.6633 18.0228 14.6062 18.1026 14.5501 18.1832C14.3981 18.4005 14.1623 18.3979 14.0215 18.1753C13.9567 18.071 13.8989 17.9606 13.8323 17.8441V17.8441Z" fill="white"/>
<path d="M22.8437 13.8834C22.8394 13.9185 22.8325 13.9991 22.8195 14.0779C22.7746 14.3531 22.5172 14.4775 22.2693 14.3496C22.1812 14.304 22.1328 14.2479 22.1294 14.1454C22.1259 14.0481 22.1164 13.95 22.0991 13.8545C22.0577 13.6188 22.2244 13.4462 22.461 13.4882C22.5206 13.4987 22.5785 13.5224 22.6372 13.5408C22.8497 13.6074 22.8515 13.61 22.8437 13.8834V13.8834Z" fill="white"/>
<path d="M18.4568 13.2034C18.3359 13.136 18.2046 13.065 18.0759 12.9879C17.891 12.8775 17.8668 12.6269 18.0327 12.4779C18.1242 12.3955 18.2313 12.3307 18.354 12.2413C18.5155 12.3833 18.6788 12.527 18.8481 12.6759C18.7669 12.9002 18.7729 13.1622 18.4568 13.2034V13.2034Z" fill="white"/>
<path d="M14.7082 20.7734C14.7643 20.5701 14.8092 20.3905 14.8645 20.2144C14.893 20.125 15.1694 20.033 15.28 20.0645C15.4087 20.1013 15.5235 20.2512 15.5166 20.3738C15.5106 20.4808 15.5028 20.5868 15.4985 20.6937C15.4899 20.932 15.3093 21.0512 15.0873 20.9618C15.0468 20.9452 15.0079 20.9241 14.9682 20.9049C14.8913 20.8663 14.8135 20.8269 14.7082 20.7734V20.7734Z" fill="white"/>
<path d="M20.807 22.469C20.623 22.3542 20.5004 22.2674 20.3674 22.1982C20.2404 22.1325 20.2162 22.0379 20.249 21.9108C20.2672 21.8416 20.2732 21.7697 20.2957 21.7022C20.3302 21.5962 20.4546 21.527 20.5634 21.5568C20.7068 21.5953 20.8511 21.6374 20.9893 21.6917C21.13 21.7469 21.1715 22.0177 21.0678 22.1553C21.0463 22.1833 21.0178 22.2052 20.9953 22.2324C20.9348 22.3069 20.8744 22.384 20.807 22.469V22.469Z" fill="white"/>
<path d="M14.6313 14.9805C14.8516 14.9358 15.0407 14.8972 15.2558 14.8534C15.318 14.9498 15.3897 15.0497 15.4493 15.1557C15.5296 15.2986 15.4916 15.4414 15.3534 15.5176C15.261 15.5684 15.1608 15.6044 15.064 15.6464C14.8153 15.7533 14.6114 15.6149 14.6166 15.3406C14.6183 15.225 14.6261 15.1102 14.6313 14.9805V14.9805Z" fill="white"/>
<path d="M22.4602 14.6457C22.5638 14.6072 22.6442 14.5748 22.7271 14.5476C22.8584 14.5038 23.1494 14.6046 23.216 14.7185C23.2324 14.7465 23.2401 14.7886 23.2332 14.8201C23.1978 14.9673 23.1607 15.1145 23.1149 15.2591C23.0873 15.3476 22.797 15.4282 22.6364 15.3923C22.5198 15.366 22.4576 15.288 22.4602 15.161C22.4628 14.991 22.4602 14.8219 22.4602 14.6457V14.6457Z" fill="white"/>
<path d="M24.1937 16.2721C24.052 16.464 23.9268 16.634 23.8007 16.804C23.5779 16.7497 23.3308 16.7777 23.2617 16.4701C23.3144 16.3475 23.3714 16.2081 23.4327 16.0706C23.5217 15.8734 23.7679 15.8208 23.9268 15.9698C24.0166 16.0539 24.0909 16.1547 24.1937 16.2721V16.2721Z" fill="white"/>
<path d="M16.2387 21.9152C16.2145 21.7741 16.1869 21.6611 16.1774 21.5463C16.1541 21.2536 16.1955 21.1923 16.4598 21.0827C16.6049 21.0232 16.7492 21.074 16.8131 21.2194C16.8554 21.3167 16.8805 21.4227 16.9133 21.5244C16.9953 21.7794 16.8684 21.9608 16.6023 21.9564C16.4831 21.9555 16.3639 21.9301 16.2387 21.9152Z" fill="white"/>
<path d="M23.5122 18.4925C23.8534 18.6108 23.9251 18.8535 23.8888 19.1743C23.7048 19.2487 23.5191 19.3241 23.2911 19.417C23.2203 19.3311 23.1373 19.2382 23.0631 19.1401C22.9646 19.0104 22.9724 18.8877 23.0959 18.7913C23.2341 18.6818 23.3818 18.5854 23.5122 18.4925V18.4925Z" fill="white"/>
<path d="M22.2062 20.6174C22.4196 20.8619 22.4058 21.1003 22.1752 21.3631C22.0067 21.3369 21.8098 21.3062 21.5774 21.2703C21.5541 21.1257 21.5274 20.9802 21.5092 20.8339C21.4928 20.7016 21.5654 20.6262 21.688 20.6192C21.8633 20.6104 22.0387 20.6174 22.2062 20.6174V20.6174Z" fill="white"/>
<path d="M22.5863 20.8716C22.5414 20.7725 22.4947 20.6867 22.4628 20.5955C22.3997 20.4185 22.487 20.2626 22.6675 20.2179C22.8195 20.1802 22.9724 20.1451 23.1149 20.111C23.4397 20.3221 23.3369 20.5912 23.2453 20.8716C23.0311 20.8716 22.8221 20.8716 22.5863 20.8716Z" fill="white"/>
<path d="M17.3417 13.2981C17.3417 13.4383 17.3477 13.5548 17.34 13.6696C17.3296 13.8247 17.2614 13.886 17.1024 13.8852C17.0066 13.8843 16.909 13.8764 16.8148 13.8606C16.4875 13.8046 16.3899 13.5461 16.5877 13.2692C16.6283 13.2122 16.668 13.1535 16.7241 13.0729C16.8278 13.1044 16.934 13.1333 17.0377 13.171C17.1361 13.2061 17.2303 13.2508 17.3417 13.2981Z" fill="white"/>
<path d="M18.5829 21.966C18.5414 22.0501 18.5086 22.122 18.4715 22.1912C18.4119 22.3016 18.1121 22.4357 17.9999 22.3945C17.9567 22.3787 17.9239 22.3288 17.8919 22.2893C17.8703 22.2622 17.8573 22.2271 17.8409 22.1956C17.7857 22.0843 17.7304 21.9739 17.6656 21.8416C17.758 21.7399 17.8504 21.6348 17.9472 21.534C18.0379 21.4394 18.1389 21.4438 18.2236 21.5375C18.3471 21.6751 18.462 21.8206 18.5829 21.966V21.966Z" fill="white"/>
<path d="M21.2069 12.789C21.2691 13.0072 21.3244 13.2017 21.384 13.4094C21.2976 13.4821 21.213 13.5574 21.124 13.6267C20.9832 13.7345 20.8485 13.709 20.7474 13.5548C20.699 13.4812 20.6602 13.4006 20.617 13.3235C20.4658 13.0492 20.5876 12.817 20.9003 12.7907C20.9944 12.7828 21.0903 12.789 21.2069 12.789Z" fill="white"/>
<path d="M22.9456 17.5321C23.0337 17.3805 23.0812 17.2736 23.1512 17.1834C23.2263 17.0861 23.2453 16.91 23.4267 16.9389C23.6098 16.9678 23.7947 17.0011 23.8456 17.2316C23.8568 17.2824 23.8845 17.3297 23.919 17.4138C23.7687 17.5391 23.6141 17.6697 23.4258 17.8274C23.2989 17.7494 23.133 17.6469 22.9456 17.5321V17.5321Z" fill="white"/>
<path d="M14.5026 19.5686C14.6011 19.3662 14.69 19.183 14.785 18.9894C14.925 19.0051 15.0554 19.0148 15.1841 19.0358C15.3076 19.056 15.3689 19.1506 15.3482 19.2855C15.3318 19.3907 15.3024 19.4941 15.2808 19.5984C15.223 19.8761 14.9448 19.9725 14.7306 19.7868C14.6572 19.7237 14.5907 19.6527 14.5026 19.5686V19.5686Z" fill="white"/>
<path d="M23.089 19.9226C22.9059 19.9664 22.7107 20.0137 22.4965 20.0663C22.4438 19.9708 22.3954 19.8884 22.3522 19.8025C22.309 19.7167 22.2702 19.629 22.2192 19.5186C22.4274 19.4091 22.6191 19.3083 22.8109 19.2076C23.0432 19.3802 23.2306 19.5589 23.089 19.9226Z" fill="white"/>
<path d="M18.9413 13.1885C18.9586 12.8424 19.1158 12.6637 19.4622 12.6321C19.5779 12.7758 19.7083 12.9388 19.8465 13.1097C19.7697 13.2306 19.7049 13.3454 19.628 13.4514C19.539 13.5732 19.4544 13.5872 19.3361 13.5014C19.1996 13.4023 19.0726 13.2928 18.9413 13.1885Z" fill="white"/>
<path d="M14.8196 16.414C14.9466 16.5113 15.0493 16.5805 15.1409 16.6638C15.2497 16.7619 15.2541 16.8513 15.1625 16.9652C15.1124 17.0274 15.0537 17.0818 14.9975 17.1396C14.728 17.4147 14.4508 17.3438 14.3437 16.9722C14.3264 16.9126 14.3126 16.8522 14.2893 16.761C14.4586 16.6498 14.633 16.5358 14.8196 16.414Z" fill="white"/>
<path d="M21.8936 13.6959C21.9212 13.8966 21.948 14.0893 21.9774 14.3058C21.8227 14.3724 21.6802 14.4363 21.5369 14.4942C21.4591 14.5257 21.3969 14.4977 21.365 14.4197C21.3045 14.2716 21.2397 14.1244 21.1939 13.9719C21.1801 13.9255 21.2034 13.8414 21.2406 13.8089C21.4893 13.5907 21.5498 13.5268 21.8936 13.6959Z" fill="white"/>
<path d="M16.2102 14.3566C16.2448 14.5485 16.3631 14.7097 16.3259 14.9288C16.1152 14.991 15.907 15.0532 15.7067 15.1128C15.4778 14.885 15.3732 14.6528 15.5875 14.3566C15.7792 14.3566 15.9805 14.3566 16.2102 14.3566V14.3566Z" fill="white"/>
<path d="M17.4661 20.7445C17.6017 20.9583 17.7157 21.1371 17.8314 21.3193C17.6725 21.5691 17.5058 21.7794 17.1508 21.6506C17.0929 21.4779 17.0299 21.286 16.9565 21.067C17.118 20.9653 17.2778 20.8637 17.4661 20.7445V20.7445Z" fill="white"/>
<path d="M15.6747 20.8759C15.6842 20.7182 15.6946 20.55 15.7049 20.3826C15.7118 20.2757 15.7714 20.2398 15.8725 20.2152C16.3752 20.0952 16.3026 20.1337 16.3925 20.5841C16.408 20.6621 16.4175 20.741 16.4313 20.8234C16.2111 21.0345 15.977 21.1055 15.6747 20.8759Z" fill="white"/>
<path d="M23.0881 16.4062C22.8929 16.3659 22.7133 16.3299 22.5034 16.287C22.5379 16.0565 22.5699 15.8392 22.6036 15.6132C22.8938 15.5632 23.1624 15.5168 23.3351 15.8462C23.2583 16.0215 23.1762 16.2073 23.0881 16.4062V16.4062Z" fill="white"/>
<path d="M14.9483 17.9317C15.1349 18.0036 15.3111 18.0728 15.5114 18.1499C15.4259 18.3777 15.3482 18.5828 15.2679 18.7975C15.178 18.7975 15.0994 18.7904 15.0226 18.7992C14.861 18.8167 14.7626 18.7379 14.6779 18.6073C14.6106 18.5039 14.5924 18.4215 14.6753 18.319C14.7643 18.2086 14.8395 18.0877 14.9483 17.9317V17.9317Z" fill="white"/>
<path d="M17.568 13.7783C17.5438 13.4847 17.4998 13.2122 17.8461 13.0676C18.0042 13.1561 18.1795 13.2543 18.379 13.3664C18.3264 13.5574 18.2763 13.7415 18.2167 13.957C17.9843 13.893 17.7779 13.8361 17.568 13.7783V13.7783Z" fill="white"/>
<path d="M19.1935 21.853C19.2531 21.718 19.2998 21.6024 19.3551 21.4911C19.4363 21.3246 19.4691 21.3132 19.6453 21.3947C19.7817 21.4578 19.9139 21.5296 20.0443 21.5954C20.0875 21.9607 20.0296 22.0922 19.793 22.2061C19.7101 22.2455 19.6427 22.2447 19.5744 22.1842C19.4527 22.0782 19.3317 21.9739 19.1935 21.853V21.853Z" fill="white"/>
<path d="M15.4164 19.8551C15.4588 19.6571 15.5002 19.4669 15.5443 19.2654C15.7455 19.2654 15.9355 19.2654 16.1497 19.2654C16.1497 19.4853 16.1497 19.6947 16.1497 19.9059C15.7783 20.0873 15.698 20.0838 15.4164 19.8551Z" fill="white"/>
<path d="M14.9751 15.8821C15.1521 15.8033 15.3344 15.7227 15.5227 15.6385C15.6393 15.8007 15.7472 15.9505 15.8725 16.1249C15.7032 16.2651 15.5365 16.4026 15.3741 16.5367C14.9612 16.3255 14.9258 16.2668 14.9751 15.8821Z" fill="white"/>
<path d="M20.6481 13.752C20.4926 13.8904 20.3544 14.0122 20.1981 14.1507C20.0478 13.9807 19.9087 13.8229 19.7472 13.6407C19.8051 13.5504 19.875 13.4304 19.9562 13.3173C20.072 13.1561 20.3138 13.1658 20.4157 13.3358C20.4943 13.4637 20.5634 13.5986 20.6481 13.752V13.752Z" fill="white"/>
<path d="M22.5086 18.2384C22.6286 18.0965 22.7634 17.9379 22.9102 17.7644C23.0475 17.8423 23.1762 17.9011 23.2885 17.9825C23.4509 18.1008 23.4483 18.3094 23.2885 18.4294C23.1693 18.5197 23.0423 18.5986 22.8886 18.7028C22.7634 18.5495 22.6424 18.4014 22.5086 18.2384Z" fill="white"/>
<path d="M21.5705 20.4387C21.5334 20.2389 21.5006 20.0584 21.4643 19.8595C21.6681 19.7876 21.8547 19.7219 22.0542 19.6509C22.1311 19.8016 22.2097 19.9305 22.2658 20.0689C22.3453 20.2626 22.2382 20.4255 22.03 20.4369C21.8901 20.4448 21.7493 20.4387 21.5705 20.4387V20.4387Z" fill="white"/>
<path d="M20.6213 20.7796C20.8588 20.7796 21.0592 20.7796 21.2579 20.7796C21.3486 21.0565 21.4341 21.3149 21.1344 21.5463C20.9599 21.4893 20.7638 21.4262 20.5487 21.3561C20.5755 21.1476 20.5988 20.9592 20.6213 20.7796Z" fill="white"/>
<path d="M18.3125 21.3684C18.4421 21.2098 18.5587 21.0661 18.6943 20.8996C18.8757 21.024 19.0476 21.1414 19.2315 21.2667C19.1063 21.5033 19.1029 21.817 18.728 21.8398C18.5993 21.6935 18.4602 21.5366 18.3125 21.3684V21.3684Z" fill="white"/>
<path d="M17.1482 14.0902C17.1577 14.1261 17.1724 14.1603 17.1733 14.1936C17.1759 14.3443 17.1741 14.4959 17.1741 14.6852C16.9789 14.7167 16.7785 14.7483 16.554 14.7842C16.5013 14.6282 16.4382 14.4819 16.4054 14.3294C16.37 14.1638 16.5376 13.9999 16.7025 14.0227C16.8494 14.0438 16.9953 14.0674 17.1482 14.0902V14.0902Z" fill="white"/>
<path d="M22.2935 15.2819C22.0879 15.2994 21.9065 15.3152 21.7036 15.3327C21.6517 15.1294 21.6016 14.9323 21.5455 14.7115C21.701 14.644 21.8409 14.5686 21.9886 14.5222C22.1466 14.4723 22.2874 14.587 22.2926 14.7562C22.2969 14.9253 22.2935 15.0944 22.2935 15.2819Z" fill="white"/>
<path d="M15.3542 17.0116C15.514 17.1299 15.6626 17.2395 15.8345 17.3665C15.7351 17.5558 15.6384 17.7416 15.5348 17.9387C15.3741 17.8809 15.2299 17.8406 15.0951 17.7784C14.9397 17.7056 14.9016 17.5059 15.0139 17.3744C15.1184 17.2535 15.2325 17.1413 15.3542 17.0116Z" fill="white"/>
<path d="M19.8344 20.5964C20.0469 20.6455 20.2318 20.6876 20.427 20.7331C20.3579 20.9916 20.4745 21.286 20.1713 21.4578C19.9908 21.3666 19.8051 21.2729 19.5935 21.1651C19.6738 20.9741 19.7481 20.7988 19.8344 20.5964V20.5964Z" fill="white"/>
<path d="M18.4179 13.9815C18.4663 13.8072 18.4965 13.6591 18.5492 13.5189C18.6183 13.3331 18.7677 13.2893 18.9215 13.4023C19.0424 13.4908 19.1564 13.5899 19.2799 13.6898C19.2557 13.9001 19.083 14.0227 19.007 14.2348C18.8066 14.1489 18.6243 14.0709 18.4179 13.9815V13.9815Z" fill="white"/>
<path d="M16.5013 20.1846C16.6948 20.1311 16.877 20.0803 17.0808 20.0242C17.1733 20.2214 17.2553 20.3957 17.346 20.5885C17.1931 20.6832 17.0558 20.7804 16.9081 20.8567C16.7829 20.9215 16.6352 20.8488 16.5989 20.7068C16.5583 20.5438 16.5367 20.3756 16.5013 20.1846V20.1846Z" fill="white"/>
<path d="M16.1541 19.0901C15.958 19.0726 15.7818 19.0665 15.6099 19.0384C15.4795 19.0174 15.4251 18.9087 15.4691 18.7756C15.5227 18.6152 15.5892 18.4592 15.654 18.291C15.8397 18.291 15.996 18.3769 16.1515 18.4496C16.1947 18.4697 16.2258 18.567 16.2223 18.6266C16.2145 18.7685 16.1826 18.9087 16.1541 19.0901V19.0901Z" fill="white"/>
<path d="M22.4809 16.485C22.6588 16.5227 22.8065 16.5437 22.9473 16.5875C23.1434 16.648 23.19 16.7768 23.0873 16.9486C23.0061 17.0844 22.9188 17.2158 22.8238 17.3657C22.6381 17.2649 22.4705 17.1738 22.2961 17.0791C22.3574 16.8793 22.4153 16.6962 22.4809 16.485V16.485Z" fill="white"/>
<path d="M22.3315 18.3909C22.4714 18.5311 22.5958 18.645 22.7063 18.7712C22.8091 18.8886 22.7936 19.0121 22.6666 19.0858C22.5146 19.1734 22.3539 19.2444 22.1717 19.3346C22.0767 19.1488 21.9903 18.978 21.8953 18.7913C22.0395 18.6581 22.176 18.5328 22.3315 18.3909V18.3909Z" fill="white"/>
<path d="M21.225 14.5485C21.0368 14.63 20.8606 14.7062 20.6757 14.7868C20.5531 14.623 20.4382 14.4688 20.3129 14.3014C20.4572 14.1761 20.5842 14.0525 20.7241 13.9456C20.832 13.8624 20.9651 13.9053 21.0264 14.0403C21.0981 14.2024 21.1551 14.3697 21.225 14.5485V14.5485Z" fill="white"/>
<path d="M17.6345 20.6718C17.8168 20.5605 17.98 20.4606 18.1571 20.3528C18.303 20.486 18.4378 20.6096 18.5898 20.748C18.4551 20.9031 18.341 21.0477 18.2123 21.1791C18.1173 21.2755 18.0111 21.2545 17.9273 21.1327C17.8314 20.9934 17.7451 20.8479 17.6345 20.6718V20.6718Z" fill="white"/>
<path d="M16.5246 15.0269C16.7518 14.878 16.9919 14.9156 17.2501 14.8727C17.2571 15.069 17.2769 15.2442 17.2622 15.4169C17.2579 15.4738 17.175 15.5422 17.1128 15.5737C16.8485 15.7078 16.7552 15.791 16.6274 15.3827C16.5902 15.267 16.56 15.1496 16.5246 15.0269V15.0269Z" fill="white"/>
<path d="M18.1337 14.134C18.0724 14.3513 18.0232 14.5222 17.9696 14.7106C17.7882 14.7106 17.6077 14.7106 17.4004 14.7106C17.3849 14.5353 17.3607 14.3601 17.3572 14.1848C17.3538 14.0192 17.4566 13.9421 17.612 13.9824C17.7805 14.0254 17.9463 14.0788 18.1337 14.134V14.134Z" fill="white"/>
<path d="M20.7111 19.9515C20.8865 19.9129 21.0558 19.8752 21.2561 19.8314C21.3028 20.0479 21.3503 20.2354 21.3814 20.4255C21.3978 20.5263 21.3477 20.6052 21.2363 20.6034C21.0445 20.5999 20.8528 20.5859 20.6342 20.5745C20.6619 20.3502 20.6852 20.1592 20.7111 19.9515V19.9515Z" fill="white"/>
<path d="M16.3579 15.1242C16.427 15.3327 16.4823 15.5001 16.5453 15.6894C16.3769 15.7928 16.2085 15.8953 16.0288 16.0057C15.9183 15.8567 15.8137 15.7271 15.7222 15.5877C15.6531 15.4835 15.6997 15.31 15.8112 15.2714C15.9839 15.2127 16.1627 15.1759 16.3579 15.1242V15.1242Z" fill="white"/>
<path d="M15.977 16.2852C16.1014 16.4596 16.2145 16.6173 16.3329 16.7821C16.2482 16.9056 16.1662 17.0187 16.0893 17.137C16.034 17.2228 15.9675 17.2351 15.8889 17.1781C15.7593 17.0844 15.628 16.9924 15.5071 16.889C15.4268 16.8206 15.4251 16.7295 15.5089 16.6585C15.6574 16.5341 15.8112 16.4167 15.977 16.2852Z" fill="white"/>
<path d="M22.322 18.1788C22.1726 18.015 22.0421 17.8713 21.9212 17.7389C21.9212 17.6995 21.9143 17.6776 21.9221 17.6645C22.0024 17.5321 21.9894 17.3061 22.1622 17.2754C22.3695 17.2395 22.5284 17.4191 22.702 17.5164C22.7668 17.5532 22.7858 17.632 22.7262 17.7021C22.5967 17.8572 22.4654 18.0106 22.322 18.1788V18.1788Z" fill="white"/>
<path d="M20.8916 15.4694C20.8338 15.3713 20.7854 15.2863 20.7336 15.2039C20.6593 15.0856 20.7163 14.977 20.8044 14.9297C20.9711 14.8412 21.1404 14.7413 21.3615 14.7308C21.4082 14.913 21.4565 15.09 21.4988 15.2679C21.5274 15.388 21.4781 15.4624 21.3555 15.4677C21.1991 15.4747 21.0419 15.4694 20.8916 15.4694V15.4694Z" fill="white"/>
<path d="M19.59 14.6773C19.4596 14.6019 19.3576 14.5494 19.2609 14.4871C19.1564 14.4197 19.121 14.3373 19.2056 14.2208C19.2894 14.106 19.3551 13.9789 19.4371 13.8633C19.4993 13.7765 19.5779 13.7634 19.6591 13.8466C19.7938 13.9851 19.9286 14.1226 20.078 14.2751C19.9001 14.4223 19.7403 14.5537 19.59 14.6773V14.6773Z" fill="white"/>
<path d="M18.7755 20.7235C18.8956 20.5868 19.0027 20.4571 19.1175 20.3362C19.1961 20.2538 19.4501 20.2906 19.5805 20.3896C19.6893 20.4729 19.666 20.571 19.6168 20.6744C19.5485 20.8181 19.4803 20.9618 19.4 21.1301C19.159 21.0267 18.9802 20.8733 18.7755 20.7235Z" fill="white"/>
<path d="M21.669 15.5352C21.8772 15.5115 22.0413 15.4808 22.2062 15.4773C22.3859 15.473 22.4213 15.5185 22.4049 15.7008C22.3894 15.8673 22.3591 16.0329 22.3306 16.23C22.1363 16.1932 21.9523 16.1591 21.7355 16.1179C21.7148 15.9374 21.6941 15.7569 21.669 15.5352V15.5352Z" fill="white"/>
<path d="M22.0309 19.4608C21.8227 19.537 21.631 19.6141 21.4332 19.6728C21.4004 19.6825 21.3123 19.6211 21.3045 19.5808C21.2708 19.417 21.257 19.2496 21.238 19.0928C21.2535 19.0665 21.2596 19.0481 21.2726 19.0376C21.5904 18.7712 21.7295 18.7633 21.9091 19.1891C21.9419 19.2715 21.9799 19.3495 22.0309 19.4608Z" fill="white"/>
<path d="M16.3398 19.2619C16.5531 19.2619 16.7276 19.2619 16.9245 19.2619C16.9703 19.3845 17.0204 19.5055 17.0601 19.6308C17.0973 19.7491 17.0731 19.8393 16.9331 19.87C16.8053 19.8989 16.6809 19.9462 16.5522 19.9716C16.4089 19.9997 16.3484 19.9541 16.3415 19.8122C16.3337 19.6369 16.3398 19.4608 16.3398 19.2619V19.2619Z" fill="white"/>
<path d="M22.3056 16.4123C22.2529 16.6051 22.2158 16.7681 22.1631 16.9258C22.1138 17.0712 22.0335 17.1002 21.9005 17.0265C21.777 16.9582 21.6595 16.8793 21.5179 16.7917C21.5179 16.7137 21.5109 16.6252 21.5196 16.5393C21.536 16.3816 21.6535 16.2879 21.8063 16.3124C21.9618 16.3369 22.1147 16.3737 22.3056 16.4123V16.4123Z" fill="white"/>
<path d="M20.4589 20.5535C20.262 20.5097 20.1151 20.4825 19.9718 20.4439C19.7982 20.3975 19.7671 20.3204 19.8465 20.1539C19.8845 20.0733 19.9268 19.9944 19.9709 19.9164C20.0547 19.7657 20.1963 19.7114 20.3466 19.7684C20.471 19.8157 20.5341 19.9287 20.5176 20.0856C20.5012 20.2336 20.4805 20.3817 20.4589 20.5535V20.5535Z" fill="white"/>
<path d="M17.5179 20.5386C17.4272 20.3423 17.3555 20.1811 17.2786 20.0216C17.2268 19.9147 17.2674 19.8455 17.3676 19.8166C17.5196 19.7727 17.6742 19.7421 17.8409 19.7026C17.8988 19.7692 17.9636 19.8314 18.0128 19.9033C18.1113 20.0496 18.0802 20.1916 17.9308 20.2897C17.8047 20.3703 17.6742 20.444 17.5179 20.5386V20.5386Z" fill="white"/>
<path d="M16.4676 16.6839C16.3493 16.5148 16.2387 16.3571 16.1109 16.1748C16.2715 16.0741 16.414 15.975 16.5661 15.8935C16.6991 15.8217 16.7708 15.8603 16.8226 16.0127C16.8459 16.0802 16.8615 16.1494 16.8805 16.2178C16.9617 16.5139 16.8692 16.6524 16.5687 16.6839C16.5427 16.6857 16.5168 16.6839 16.4676 16.6839Z" fill="white"/>
<path d="M16.9539 19.1033C16.7431 19.0936 16.5531 19.084 16.3536 19.0752C16.3691 18.8947 16.3786 18.7361 16.3968 18.5793C16.4123 18.4399 16.5255 18.3663 16.6611 18.4119C16.7518 18.4426 16.839 18.4881 16.9254 18.5311C17.1275 18.631 17.1681 18.7668 17.0541 18.9596C17.0264 19.0034 16.9936 19.0454 16.9539 19.1033Z" fill="white"/>
<path d="M17.4186 14.8894C17.6708 14.956 17.9429 14.7676 18.113 15.0813C18.0629 15.2145 18.0059 15.3459 17.9645 15.4817C17.9213 15.6228 17.8245 15.657 17.6984 15.6386C17.5594 15.6184 17.4263 15.5062 17.4203 15.3967C17.4134 15.246 17.4186 15.0953 17.4186 14.8894Z" fill="white"/>
<path d="M15.6678 18.0719C15.7947 17.8345 15.8975 17.6417 16.0029 17.4445C16.2206 17.5006 16.338 17.6531 16.4745 17.7722C16.5419 17.8309 16.503 18.1166 16.4244 18.2025C16.3449 18.2892 16.2534 18.3041 16.1385 18.2498C15.9995 18.1823 15.8483 18.1385 15.6678 18.0719Z" fill="white"/>
<path d="M18.1381 14.7588C18.1942 14.5669 18.2503 14.3732 18.3177 14.1437C18.5181 14.2252 18.6969 14.2926 18.8696 14.3715C18.9586 14.4118 18.9698 14.4898 18.9137 14.5722C18.8584 14.6528 18.8014 14.7325 18.7444 14.8122C18.6097 14.9998 18.3765 15.0173 18.2106 14.8526C18.1873 14.8271 18.1674 14.7965 18.1381 14.7588Z" fill="white"/>
<path d="M19.7023 14.807C19.8595 14.6756 20.0011 14.5573 20.1678 14.4188C20.2767 14.5651 20.3855 14.6913 20.4719 14.8324C20.5565 14.9717 20.5168 15.0611 20.3648 15.1233C20.2913 15.1531 20.2145 15.1759 20.1385 15.2022C19.9061 15.2819 19.7748 15.2022 19.7325 14.9568C19.7239 14.9121 19.7144 14.8692 19.7023 14.807V14.807Z" fill="white"/>
<path d="M21.3589 18.1306C21.3978 17.9966 21.4678 17.9124 21.6051 17.8748C21.7208 17.8423 21.8063 17.845 21.8867 17.9449C21.9748 18.0544 22.0758 18.1543 22.1812 18.2699C22.0724 18.3769 21.9756 18.4811 21.8703 18.5749C21.7338 18.6967 21.593 18.6634 21.5127 18.4969C21.5006 18.4724 21.4911 18.4478 21.4807 18.4233C21.4393 18.3243 21.3978 18.2253 21.3589 18.1306V18.1306Z" fill="white"/>
<path d="M19.0648 20.1416C18.9448 20.2792 18.823 20.4168 18.7047 20.5517C18.278 20.2888 18.2685 20.2731 18.3177 19.9541C18.4214 19.9015 18.5302 19.8437 18.6416 19.7911C18.8308 19.7026 18.9128 19.7342 18.9932 19.9243C19.0208 19.9892 19.0381 20.0584 19.0648 20.1416V20.1416Z" fill="white"/>
<path d="M16.7518 16.8969C16.8226 17.0204 16.9003 17.1501 16.9712 17.2833C17.0316 17.3963 17.0109 17.4875 16.8891 17.5488C16.6023 17.6934 16.6283 17.7039 16.4313 17.5129C16.3622 17.4454 16.281 17.3911 16.2067 17.3324C16.4175 16.8942 16.4408 16.875 16.7518 16.8969Z" fill="white"/>
<path d="M21.4047 17.7065C21.2967 17.5541 21.1896 17.4016 21.0713 17.2342C21.1931 17.1317 21.3071 17.0362 21.4349 16.9284C21.5895 17.023 21.7381 17.1133 21.8979 17.2106C21.821 17.4656 21.7744 17.7205 21.4047 17.7065Z" fill="white"/>
<path d="M21.4859 15.6412C21.5032 15.7761 21.5282 15.9146 21.5386 16.0548C21.5489 16.2029 21.4056 16.3185 21.2622 16.2817C21.1603 16.2554 21.0592 16.2239 20.9599 16.188C20.8027 16.131 20.769 16.0609 20.8148 15.9014C20.8269 15.8585 20.8424 15.8164 20.8605 15.777C20.8787 15.7367 20.9029 15.699 20.9262 15.6561C20.9607 15.6508 20.9953 15.6421 21.0298 15.6421C21.1775 15.6403 21.3244 15.6412 21.4859 15.6412V15.6412Z" fill="white"/>
<path d="M19.5339 15.1443C19.406 15.2293 19.286 15.3056 19.1702 15.3871C19.0666 15.4598 18.9914 15.4388 18.9292 15.331C18.8809 15.246 18.8282 15.1645 18.7686 15.0672C18.8714 14.9165 18.9716 14.7711 19.0674 14.6309C19.4673 14.7527 19.5019 14.7903 19.5339 15.1443V15.1443Z" fill="white"/>
<path d="M21.1361 19.6606C21.0022 19.6939 20.8934 19.7298 20.7828 19.7464C20.579 19.7762 20.4511 19.629 20.4969 19.4257C20.5202 19.3215 20.5427 19.2163 20.5772 19.1164C20.5928 19.0709 20.6282 19.0174 20.6679 18.9999C20.7897 18.9464 21.0506 19.0875 21.0912 19.2198C21.1015 19.254 21.1145 19.2882 21.1171 19.3232C21.1249 19.4275 21.1292 19.5335 21.1361 19.6606V19.6606Z" fill="white"/>
<path d="M20.0823 15.8927C20.0607 15.8453 20.0452 15.8226 20.04 15.798C19.9674 15.4414 20.1091 15.2609 20.4701 15.26C20.5116 15.26 20.5652 15.2986 20.5937 15.3354C20.7543 15.5395 20.7534 15.5807 20.6075 15.8927C20.4321 15.8927 20.2533 15.8927 20.0823 15.8927V15.8927Z" fill="white"/>
<path d="M17.8841 19.0805C17.8772 19.1523 17.8789 19.1804 17.872 19.2049C17.8409 19.3215 17.8418 19.4993 17.7684 19.5397C17.625 19.6194 17.441 19.622 17.2666 19.6579C17.2234 19.5291 17.1862 19.431 17.1586 19.3302C17.1016 19.1252 17.2424 18.9517 17.4453 18.9824C17.5879 19.0043 17.7287 19.0446 17.8841 19.0805V19.0805Z" fill="white"/>
<path d="M16.9487 15.8708C17.3279 15.6578 17.3279 15.6578 17.6267 15.8401C17.6069 16.0153 17.5853 16.2055 17.5637 16.4026C17.397 16.4026 17.2527 16.4026 17.0973 16.4026C17.0454 16.2178 16.9988 16.0504 16.9487 15.8708Z" fill="white"/>
<path d="M19.8768 19.7552C19.8172 19.8691 19.7368 20.0242 19.6591 20.1741C19.2575 20.1206 19.2575 20.1206 19.1322 19.7315C19.2652 19.6203 19.4043 19.5028 19.5684 19.3644C19.6669 19.4897 19.7636 19.6115 19.8768 19.7552V19.7552Z" fill="white"/>
<path d="M17.0705 17.6908C17.1784 17.8099 17.2907 17.9343 17.4186 18.0754C17.3279 18.1999 17.2406 18.319 17.1387 18.4575C16.9712 18.3812 16.807 18.3068 16.6481 18.2349C16.706 17.8134 16.706 17.8134 17.0705 17.6908V17.6908Z" fill="white"/>
<path d="M21.2043 18.1701C21.2786 18.3488 21.346 18.51 21.4073 18.6573C21.2276 18.9289 21.0152 18.9359 20.7595 18.794C20.7595 18.6283 20.7595 18.4531 20.7595 18.2621C20.8977 18.234 21.0324 18.206 21.2043 18.1701Z" fill="white"/>
<path d="M17.7157 16.4456C17.7407 16.2607 17.7528 16.1109 17.7831 15.9654C17.8159 15.8068 17.9049 15.7647 18.0551 15.8305C18.1277 15.862 18.1907 15.9146 18.2616 15.9505C18.3704 16.0057 18.4231 16.0863 18.3955 16.2107C18.3669 16.3369 18.2624 16.4368 18.1406 16.443C18.0171 16.4508 17.8936 16.4456 17.7157 16.4456V16.4456Z" fill="white"/>
<path d="M18.5699 19.162C18.6002 19.2461 18.6321 19.3276 18.658 19.4117C18.6736 19.4617 18.6796 19.5142 18.6952 19.5896C18.5915 19.6431 18.4931 19.6974 18.392 19.7456C18.1899 19.842 18.0059 19.7193 18.0094 19.4923C18.0102 19.4389 18.0145 19.3846 18.0232 19.332C18.0318 19.2803 18.0491 19.2295 18.0664 19.162C18.2331 19.162 18.3955 19.162 18.5699 19.162Z" fill="white"/>
<path d="M17.8625 18.9158C17.6639 18.8728 17.4868 18.8343 17.3279 18.8001C17.1974 18.5127 17.4186 18.3839 17.5265 18.2139C17.5404 18.192 17.5896 18.1832 17.6224 18.1841C17.7744 18.1885 17.9593 18.4215 17.9325 18.574C17.9152 18.6774 17.891 18.7799 17.8625 18.9158Z" fill="white"/>
<path d="M20.9495 17.342C21.0678 17.5032 21.1758 17.6504 21.3054 17.8266C21.238 17.8958 21.1862 17.9904 21.111 18.0176C20.9832 18.0632 20.8381 18.0938 20.7059 18.0781C20.5695 18.0614 20.5254 17.7389 20.6394 17.6206C20.7293 17.5269 20.8329 17.4454 20.9495 17.342Z" fill="white"/>
<path d="M18.8334 15.5387C18.7237 15.6447 18.6105 15.7542 18.4801 15.8804C18.411 15.8454 18.3428 15.8129 18.2763 15.777C18.2149 15.7437 18.1562 15.7052 18.069 15.6526C18.1303 15.487 18.1907 15.324 18.2486 15.1671C18.6019 15.1119 18.6088 15.1163 18.8334 15.5387V15.5387Z" fill="white"/>
<path d="M19.9813 16.0276C20.2076 16.0539 20.3812 16.0635 20.5496 16.0977C20.6403 16.1161 20.661 16.209 20.6308 16.294C20.5954 16.3948 20.5453 16.4903 20.5056 16.5893C20.4615 16.7015 20.3734 16.7207 20.2689 16.7164C20.1609 16.712 20.0763 16.6699 20.0555 16.556C20.0279 16.4 20.0115 16.2414 19.9813 16.0276V16.0276Z" fill="white"/>
<path d="M20.959 17.066C20.8493 16.9617 20.7353 16.8548 20.6118 16.7383C20.674 16.5954 20.7301 16.4675 20.7984 16.3106C20.9737 16.3615 21.1387 16.4097 21.2985 16.4561C21.3658 16.7584 21.4263 16.7558 20.959 17.066V17.066Z" fill="white"/>
<path d="M17.5784 17.9834C17.5352 17.9492 17.4989 17.9265 17.4695 17.8958C17.3952 17.8196 17.3218 17.7433 17.2527 17.6618C17.1499 17.5418 17.162 17.4664 17.3002 17.3884C17.384 17.3411 17.4764 17.3087 17.5628 17.2631C17.7001 17.1913 17.777 17.3034 17.8591 17.37C17.9377 17.434 17.9299 17.5234 17.8712 17.6093C17.8116 17.6969 17.7623 17.7924 17.7001 17.8791C17.6725 17.9186 17.625 17.9449 17.5784 17.9834Z" fill="white"/>
<path d="M19.4812 19.2373C19.3481 19.3486 19.2307 19.4547 19.1046 19.5484C19.0674 19.5765 19.0052 19.5843 18.9569 19.5782C18.8679 19.5668 18.7297 19.2768 18.7323 19.1252C18.734 19.0078 18.8118 18.9044 18.9413 18.8868C19.0113 18.8772 19.102 18.893 19.1564 18.9333C19.2696 19.0157 19.3637 19.1234 19.4812 19.2373Z" fill="white"/>
<path d="M19.6686 19.2514C19.7334 19.1611 19.7774 19.0954 19.8267 19.0332C19.8707 18.978 19.9191 18.9263 19.9709 18.8676C20.1238 18.9123 20.2654 18.9543 20.4321 19.0034C20.4002 19.1471 20.3734 19.2838 20.338 19.4187C20.2965 19.5782 20.1238 19.636 19.9864 19.5397C19.9649 19.5248 19.9484 19.502 19.9294 19.4845C19.8439 19.4082 19.7576 19.332 19.6686 19.2514Z" fill="white"/>
<path d="M19.1659 15.5702C19.3335 15.4616 19.4872 15.3634 19.653 15.2556C19.7282 15.3406 19.8128 15.3958 19.8353 15.4712C19.8724 15.5974 19.8724 15.7367 19.8828 15.8699C19.8845 15.8909 19.8595 15.9181 19.8405 15.9347C19.7515 16.0127 19.4224 15.9812 19.3551 15.883C19.2903 15.7901 19.2359 15.6876 19.1659 15.5702V15.5702Z" fill="white"/>
<path d="M19.9692 18.3304C20.1134 18.2831 20.2525 18.2305 20.3959 18.1928C20.5185 18.1613 20.5859 18.2112 20.5902 18.3383C20.5945 18.4724 20.5867 18.6073 20.5721 18.7396C20.5626 18.8229 20.503 18.8649 20.4192 18.8422C20.3086 18.8115 20.1903 18.7913 20.0936 18.7344C19.9441 18.6476 19.9441 18.4952 19.9692 18.3304V18.3304Z" fill="white"/>
<path d="M17.5533 16.634C17.5533 16.7786 17.5533 16.9275 17.5533 17.0949C17.4384 17.151 17.3141 17.2123 17.1577 17.2894C17.067 17.1317 16.9824 16.9819 16.9012 16.8408C17.0549 16.5017 17.1076 16.5577 17.5533 16.634V16.634Z" fill="white"/>
<path d="M19.0951 16.393C18.9586 16.3361 18.8265 16.2896 18.7038 16.2265C18.5561 16.1503 18.538 16.053 18.6477 15.9339C18.747 15.8261 18.8575 15.7279 18.9897 15.5991C19.0916 15.7568 19.1961 15.8778 19.254 16.018C19.3188 16.1739 19.1815 16.2703 19.0951 16.393V16.393Z" fill="white"/>
<path d="M18.0206 18.9692C18.0482 18.7755 18.0707 18.6126 18.0923 18.461C18.1191 18.4391 18.1311 18.4207 18.1467 18.418C18.2469 18.3979 18.3937 18.3313 18.4386 18.3742C18.5414 18.4732 18.6148 18.6178 18.6615 18.758C18.6952 18.8588 18.6114 18.9534 18.5077 18.9657C18.3549 18.9815 18.1985 18.9692 18.0206 18.9692V18.9692Z" fill="white"/>
<path d="M20.8744 17.2219C20.7301 17.342 20.6032 17.4471 20.4675 17.5602C20.3656 17.505 20.2741 17.455 20.1549 17.3902C20.1886 17.2272 20.2214 17.0651 20.2525 16.9153C20.5842 16.7838 20.6818 17.0581 20.8744 17.2219V17.2219Z" fill="white"/>
<path d="M19.7498 18.4215C19.9459 18.7274 19.7489 18.8974 19.5649 19.0945C19.4311 18.9832 19.305 18.8772 19.184 18.7764C19.3464 18.3725 19.3464 18.3725 19.7498 18.4215Z" fill="white"/>
<path d="M19.9182 16.6086C19.6358 16.7996 19.4363 16.7348 19.2609 16.5025C19.343 16.2405 19.4846 16.0653 19.8413 16.1617C19.8629 16.2879 19.8906 16.4482 19.9182 16.6086Z" fill="white"/>
<path d="M18.2495 16.6191C18.2823 16.7312 18.3134 16.8399 18.3462 16.9521C18.2694 17.0152 18.2003 17.0686 18.1346 17.1247C18.0672 17.1825 18.0033 17.2509 17.9057 17.1834C17.8211 17.1247 17.7174 17.0844 17.7287 16.9468C17.7373 16.8425 17.7304 16.7374 17.7304 16.6182C17.9126 16.6191 18.0741 16.6191 18.2495 16.6191Z" fill="white"/>
<path d="M17.777 18.0202C17.8582 17.8897 17.942 17.7556 18.0396 17.5996C18.1545 17.6653 18.2503 17.7232 18.3497 17.7758C18.4533 17.831 18.462 17.9282 18.4646 18.029C18.4671 18.142 18.3825 18.1771 18.2987 18.2104C18.0543 18.305 18.0318 18.2962 17.777 18.0202V18.0202Z" fill="white"/>
<path d="M19.8102 18.2875C19.6746 18.2875 19.5883 18.2901 19.5019 18.2866C19.3024 18.2778 19.1901 18.1149 19.2523 17.923C19.2739 17.8555 19.2972 17.7845 19.3361 17.7267C19.3715 17.6741 19.4285 17.6031 19.4777 17.6014C19.5693 17.5987 19.6721 17.6215 19.6971 17.7477C19.7291 17.9124 19.7653 18.0754 19.8102 18.2875V18.2875Z" fill="white"/>
<path d="M19.8085 17.6469C20.1851 17.4542 20.3803 17.5725 20.433 18.0369C20.2767 18.0868 20.1151 18.1394 19.9277 18.199C19.8845 17.9974 19.8457 17.8196 19.8085 17.6469V17.6469Z" fill="white"/>
<path d="M19.3309 17.3972C19.1504 17.3324 18.9266 17.3376 18.8567 17.0704C18.956 16.938 19.0597 16.7987 19.1624 16.6611C19.4846 16.882 19.52 17.0449 19.3309 17.3972V17.3972Z" fill="white"/>
<path d="M20.1255 16.9021C20.0219 17.0625 20.1272 17.2929 19.9113 17.3981C19.7809 17.462 19.66 17.4664 19.533 17.3692C19.5503 17.2185 19.5675 17.0695 19.5865 16.9004C19.7515 16.8425 19.9104 16.6909 20.1255 16.9021Z" fill="white"/>
<path d="M19.083 16.5411C18.9603 16.7111 18.8593 16.8513 18.7625 16.9854C18.3721 16.8942 18.2987 16.6489 18.5647 16.3238C18.7194 16.3886 18.8791 16.4561 19.083 16.5411V16.5411Z" fill="white"/>
<path d="M19.0813 18.1245C19.1296 18.1972 19.1728 18.2638 19.2238 18.3409C19.1339 18.5162 19.0968 18.7405 18.8031 18.7133C18.7409 18.5942 18.6701 18.4715 18.6114 18.3436C18.5552 18.2209 18.6045 18.1368 18.7366 18.1271C18.8506 18.1175 18.9655 18.1245 19.0813 18.1245V18.1245Z" fill="white"/>
<path d="M18.8671 17.4007C19.0052 17.4585 19.108 17.5024 19.2065 17.5435C19.1547 17.9896 19.1158 18.022 18.658 18.0009C18.4749 17.717 18.7712 17.6101 18.8671 17.4007Z" fill="white"/>
<path d="M18.7764 17.3472C18.6822 17.4638 18.5941 17.5733 18.4965 17.6942C18.335 17.6171 18.1769 17.5514 18.0646 17.3735C18.1899 17.2666 18.303 17.1711 18.4222 17.0695C18.5794 17.0949 18.734 17.1238 18.7764 17.3472Z" fill="white"/>
</g>
<path d="M54.5532 13.8332C55.0336 13.8332 55.5102 13.9035 55.9828 14.0442C56.4555 14.1848 56.8676 14.3743 57.2192 14.6125L56.809 15.5149C56.4496 15.2766 56.0649 15.0989 55.6547 14.9817C55.2485 14.8645 54.8618 14.8059 54.4946 14.8059C53.9516 14.8059 53.518 14.9035 53.1938 15.0989C52.8696 15.2942 52.7075 15.5696 52.7075 15.925C52.7075 16.2297 52.7973 16.4817 52.977 16.6809C53.1567 16.8801 53.3813 17.0364 53.6508 17.1496C53.9243 17.259 54.2973 17.386 54.77 17.5305C55.3442 17.7141 55.8051 17.886 56.1528 18.0461C56.5043 18.2063 56.8032 18.4426 57.0493 18.7551C57.2993 19.0676 57.4243 19.4797 57.4243 19.9914C57.4243 20.4563 57.2973 20.8625 57.0434 21.2102C56.7934 21.5578 56.4379 21.8274 55.977 22.0188C55.5161 22.2102 54.9848 22.3059 54.3832 22.3059C53.7817 22.3059 53.1977 22.1907 52.6313 21.9602C52.0649 21.7258 51.5786 21.4133 51.1723 21.0227L51.6 20.1614C51.9828 20.5364 52.4243 20.8274 52.9243 21.0344C53.4282 21.2414 53.9184 21.345 54.395 21.345C55.0043 21.345 55.4848 21.2278 55.8364 20.9934C56.1879 20.7551 56.3637 20.4368 56.3637 20.0383C56.3637 19.7258 56.2719 19.468 56.0883 19.2649C55.9047 19.0618 55.6762 18.9035 55.4028 18.7903C55.1332 18.677 54.7621 18.55 54.2895 18.4094C53.7231 18.2414 53.2621 18.0793 52.9067 17.9231C52.5551 17.7668 52.2563 17.5344 52.0102 17.2258C51.768 16.9172 51.6469 16.511 51.6469 16.0071C51.6469 15.5735 51.7661 15.1926 52.0043 14.8645C52.2465 14.5364 52.5883 14.2825 53.0297 14.1028C53.4711 13.9231 53.9789 13.8332 54.5532 13.8332ZM59.2641 22.2707V15.9485H60.184V22.2707H59.2641ZM59.7153 13.4875C59.8911 13.4875 60.0375 13.55 60.1547 13.675C60.2719 13.7961 60.3305 13.9485 60.3305 14.1321C60.3305 14.3157 60.2719 14.47 60.1547 14.595C60.0375 14.72 59.8911 14.7825 59.7153 14.7825C59.5395 14.7825 59.393 14.7219 59.2758 14.6008C59.1625 14.4758 59.1059 14.3196 59.1059 14.1321C59.1059 13.9485 59.1625 13.7961 59.2758 13.675C59.393 13.55 59.5395 13.4875 59.7153 13.4875ZM67.9711 21.6086C67.9711 22.218 67.8383 22.7493 67.5727 23.2024C67.3071 23.6594 66.934 24.009 66.4536 24.2512C65.977 24.4973 65.4223 24.6203 64.7895 24.6203C63.852 24.6125 62.9887 24.3098 62.1996 23.7121L62.6274 22.9914C62.9477 23.2571 63.2797 23.4543 63.6235 23.5832C63.9672 23.716 64.3442 23.7864 64.7543 23.7942C65.4418 23.7942 65.9926 23.5969 66.4067 23.2024C66.8246 22.8118 67.0336 22.2883 67.0336 21.6321V20.677C66.811 21.1028 66.4985 21.4289 66.0961 21.6555C65.6977 21.8821 65.2348 21.9953 64.7075 21.9953C64.1489 21.9953 63.6508 21.8664 63.2133 21.6086C62.7758 21.3469 62.434 20.9836 62.1879 20.5188C61.9457 20.0539 61.8246 19.5266 61.8246 18.9368C61.8246 18.3508 61.9438 17.8313 62.1821 17.3782C62.4243 16.9211 62.7602 16.5637 63.1899 16.3059C63.6235 16.0442 64.1196 15.9133 64.6782 15.9133C65.2133 15.9133 65.6801 16.0266 66.0786 16.2532C66.4809 16.4797 66.7993 16.8059 67.0336 17.2317V15.9485H67.9711V21.6086ZM64.8715 21.2043C65.2895 21.2043 65.6625 21.1086 65.9907 20.9172C66.3188 20.7219 66.5746 20.4543 66.7582 20.1145C66.9418 19.7746 67.0336 19.3938 67.0336 18.9719C67.0336 18.5383 66.9418 18.1516 66.7582 17.8118C66.5746 17.4719 66.3188 17.2063 65.9907 17.0149C65.6625 16.8235 65.2895 16.7278 64.8715 16.7278C64.4575 16.7278 64.0864 16.8235 63.7582 17.0149C63.4301 17.2063 63.1723 17.4719 62.9848 17.8118C62.7973 18.1516 62.7036 18.5383 62.7036 18.9719C62.7036 19.3977 62.7973 19.7805 62.9848 20.1203C63.1723 20.4563 63.4301 20.7219 63.7582 20.9172C64.0864 21.1086 64.4575 21.2043 64.8715 21.2043ZM73.4731 15.9133C74.227 15.9133 74.8149 16.1321 75.2368 16.5696C75.6625 17.0032 75.8754 17.6028 75.8754 18.3684V22.2707H74.9379V18.6203C74.9379 18.0618 74.7797 17.6262 74.4633 17.3137C74.1469 17.0012 73.7094 16.845 73.1508 16.845C72.5336 16.8528 72.0395 17.0422 71.6684 17.4133C71.2973 17.7805 71.0825 18.2668 71.0239 18.8723V22.2707H70.0922V15.9485H71.0239V17.3371C71.4575 16.3996 72.2739 15.925 73.4731 15.9133ZM81.2602 22.2707V15.9485H82.1801V22.2707H81.2602ZM81.7114 13.4875C81.8871 13.4875 82.0336 13.55 82.1508 13.675C82.268 13.7961 82.3266 13.9485 82.3266 14.1321C82.3266 14.3157 82.268 14.47 82.1508 14.595C82.0336 14.72 81.8871 14.7825 81.7114 14.7825C81.5356 14.7825 81.3891 14.7219 81.2719 14.6008C81.1586 14.4758 81.102 14.3196 81.102 14.1321C81.102 13.9485 81.1586 13.7961 81.2719 13.675C81.3891 13.55 81.5356 13.4875 81.7114 13.4875ZM87.8403 15.9133C88.5942 15.9133 89.1821 16.1321 89.6039 16.5696C90.0297 17.0032 90.2426 17.6028 90.2426 18.3684V22.2707H89.3051V18.6203C89.3051 18.0618 89.1469 17.6262 88.8305 17.3137C88.5141 17.0012 88.0766 16.845 87.518 16.845C86.9008 16.8528 86.4067 17.0422 86.0356 17.4133C85.6645 17.7805 85.4496 18.2668 85.3911 18.8723V22.2707H84.4594V15.9485H85.3911V17.3371C85.8246 16.3996 86.6411 15.925 87.8403 15.9133ZM101.575 22.2707L99.7172 17.1321L97.8715 22.2707H96.8989L94.5317 15.9485H95.5161L97.3911 21.2981L99.225 15.9485H100.209L102.067 21.2981L103.918 15.9485H104.891L102.547 22.2707H101.575ZM105.998 22.2707V15.9485H106.918V22.2707H105.998ZM106.45 13.4875C106.625 13.4875 106.772 13.55 106.889 13.675C107.006 13.7961 107.065 13.9485 107.065 14.1321C107.065 14.3157 107.006 14.47 106.889 14.595C106.772 14.72 106.625 14.7825 106.45 14.7825C106.274 14.7825 106.127 14.7219 106.01 14.6008C105.897 14.4758 105.84 14.3196 105.84 14.1321C105.84 13.9485 105.897 13.7961 106.01 13.675C106.127 13.55 106.274 13.4875 106.45 13.4875ZM112.461 21.8371C112.004 22.1496 111.528 22.3098 111.032 22.3176C110.543 22.3176 110.153 22.1692 109.86 21.8723C109.567 21.5715 109.42 21.1203 109.42 20.5188V16.9094H108.512V16.1535H109.42V14.4836H110.346V16.1535L112.35 16.136V16.9094H110.346V20.3489C110.346 20.7239 110.416 20.9953 110.557 21.1633C110.698 21.3274 110.909 21.4094 111.19 21.4094C111.518 21.4094 111.854 21.3 112.198 21.0813L112.461 21.8371ZM117.325 15.9133C118.079 15.9133 118.666 16.1321 119.088 16.5696C119.514 17.0032 119.727 17.6028 119.727 18.3684V22.2707H118.789V18.6203C118.789 18.0618 118.631 17.6262 118.315 17.3137C117.998 17.0012 117.561 16.845 117.002 16.845C116.338 16.8528 115.817 17.0696 115.438 17.4953C115.059 17.9172 114.87 18.4739 114.87 19.1653V22.2707H113.932V13.3645H114.87V17.3606C115.284 16.4075 116.102 15.925 117.325 15.9133ZM131.95 18.1692V21.216C131.524 21.552 131.036 21.8196 130.485 22.0188C129.934 22.218 129.381 22.3176 128.827 22.3176C128.026 22.3176 127.291 22.1282 126.623 21.7493C125.959 21.3703 125.43 20.8567 125.036 20.2082C124.645 19.5598 124.45 18.8469 124.45 18.0696C124.45 17.2922 124.645 16.5832 125.036 15.9426C125.43 15.2981 125.967 14.7883 126.647 14.4133C127.327 14.0344 128.071 13.845 128.879 13.845C129.454 13.845 130.01 13.9485 130.549 14.1555C131.092 14.3586 131.567 14.6399 131.973 14.9993L131.422 15.72C131.079 15.4153 130.684 15.177 130.239 15.0051C129.793 14.8332 129.34 14.7473 128.879 14.7473C128.247 14.7473 127.666 14.8957 127.139 15.1926C126.612 15.4856 126.194 15.8879 125.885 16.3996C125.577 16.9075 125.422 17.4641 125.422 18.0696C125.422 18.6789 125.579 19.2395 125.891 19.7512C126.204 20.2629 126.623 20.6672 127.151 20.9641C127.678 21.261 128.258 21.4094 128.891 21.4094C129.266 21.4094 129.645 21.3469 130.028 21.2219C130.414 21.0969 130.772 20.9231 131.1 20.7004V18.1692H131.95ZM134.147 22.2707V15.9485H135.067V22.2707H134.147ZM134.598 13.4875C134.774 13.4875 134.92 13.55 135.038 13.675C135.155 13.7961 135.213 13.9485 135.213 14.1321C135.213 14.3157 135.155 14.47 135.038 14.595C134.92 14.72 134.774 14.7825 134.598 14.7825C134.422 14.7825 134.276 14.7219 134.159 14.6008C134.045 14.4758 133.989 14.3196 133.989 14.1321C133.989 13.9485 134.045 13.7961 134.159 13.675C134.276 13.55 134.422 13.4875 134.598 13.4875ZM145.444 15.9133C146.178 15.9133 146.752 16.1321 147.166 16.5696C147.584 17.0032 147.793 17.6028 147.793 18.3684V22.2707H146.862V18.6203C146.862 18.0618 146.706 17.6243 146.393 17.3078C146.081 16.9914 145.653 16.8332 145.11 16.8332C144.461 16.8489 143.954 17.0696 143.586 17.4953C143.223 17.9172 143.041 18.4739 143.041 19.1653V22.2707H142.098V18.6203C142.098 18.0618 141.944 17.6243 141.635 17.3078C141.327 16.9914 140.897 16.8332 140.346 16.8332C139.706 16.8489 139.198 17.0696 138.823 17.4953C138.452 17.9172 138.266 18.4739 138.266 19.1653V22.2707H137.346V15.9485H138.266V17.3723C138.473 16.8918 138.78 16.5305 139.186 16.2883C139.596 16.0461 140.094 15.9211 140.68 15.9133C141.274 15.9133 141.766 16.0578 142.157 16.3469C142.547 16.6321 142.811 17.0383 142.948 17.5657C143.139 17.0149 143.448 16.6047 143.873 16.3352C144.303 16.0618 144.827 15.9211 145.444 15.9133ZM149.932 22.2707V13.3645H150.87V22.2707H149.932ZM155.229 23.1731C155.026 23.6614 154.764 24.0285 154.444 24.2746C154.127 24.5246 153.756 24.6496 153.331 24.6496C152.827 24.6496 152.383 24.4934 152 24.1809L152.393 23.4016C152.674 23.6008 152.971 23.7004 153.284 23.7004C153.53 23.7004 153.75 23.6243 153.946 23.4719C154.145 23.3196 154.307 23.0989 154.432 22.8098L154.702 22.2239L152.082 15.9485H153.067L155.164 21.1692L157.168 15.9485H158.129L155.229 23.1731ZM162.659 22.2707V13.8684H163.62V22.2707H162.659ZM169.561 13.8684C170.37 13.8684 171.1 14.0539 171.752 14.425C172.409 14.7922 172.926 15.2961 173.305 15.9368C173.688 16.5735 173.879 17.2844 173.879 18.0696C173.879 18.8547 173.688 19.5676 173.305 20.2082C172.926 20.8489 172.405 21.3528 171.741 21.72C171.077 22.0871 170.338 22.2707 169.526 22.2707H166.163V13.8684H169.561ZM167.123 21.3567H169.573C170.19 21.3567 170.752 21.216 171.26 20.9348C171.768 20.6496 172.168 20.2571 172.461 19.7571C172.758 19.2571 172.907 18.6985 172.907 18.0813C172.907 17.4641 172.756 16.9075 172.456 16.4114C172.155 15.9114 171.748 15.5168 171.237 15.2278C170.725 14.9387 170.159 14.7942 169.538 14.7942H167.123V21.3567Z" fill="white"/>
<defs>
<clipPath id="clip0">
<rect width="19" height="21" fill="white" transform="translate(8.99973 6.77074)"/>
</clipPath>
</defs>
</svg>
